<?xml version="1.0" encoding="UTF-8" standalone="no"?>
<svg
   xmlns:dc="http://purl.org/dc/elements/1.1/"
   xmlns:cc="http://creativecommons.org/ns#"
   xmlns:rdf="http://www.w3.org/1999/02/22-rdf-syntax-ns#"
   xmlns:svg="http://www.w3.org/2000/svg"
   xmlns="http://www.w3.org/2000/svg"
   xmlns:sodipodi="http://sodipodi.sourceforge.net/DTD/sodipodi-0.dtd"
   xmlns:inkscape="http://www.inkscape.org/namespaces/inkscape"
   version="1.1"
   id="svg2"
   xml:space="preserve"
   width="1200"
   height="1200"
   viewBox="0 0 1200 1200"
   sodipodi:docname="introduction-proposal.eps"><metadata
     id="metadata8"><rdf:RDF><cc:Work
         rdf:about=""><dc:format>image/svg+xml</dc:format><dc:type
           rdf:resource="http://purl.org/dc/dcmitype/StillImage" /></cc:Work></rdf:RDF></metadata><defs
     id="defs6"><clipPath
       clipPathUnits="userSpaceOnUse"
       id="clipPath130"><path
         d="m 4729.9,5061.8 -9.4,1.02 -407.6,44.08 33.6,311.5 462.5,-50 -5.95,-57.9 -11.58,-112.63 -0.74,-7.2 -3.13,-30.47 -81.4,15.2 -19.5,-42.6 43.2,-71"
         id="path128" /></clipPath><linearGradient
       x1="0"
       y1="0"
       x2="1"
       y2="0"
       gradientUnits="userSpaceOnUse"
       gradientTransform="matrix(-412.556,676.219,676.219,412.556,4702.56,5005.53)"
       spreadMethod="pad"
       id="linearGradient138"><stop
         style="stop-opacity:1;stop-color:#ffffff"
         offset="0"
         id="stop132" /><stop
         style="stop-opacity:1;stop-color:#ffffff"
         offset="0.161403"
         id="stop134" /><stop
         style="stop-opacity:1;stop-color:#d2e3ed"
         offset="1"
         id="stop136" /></linearGradient><clipPath
       clipPathUnits="userSpaceOnUse"
       id="clipPath148"><path
         d="m 4777,5056.7 -47.1,5.1 -43.2,71 19.5,42.6 81.4,-15.2 -10.2,-100 -0.2,-1.7 -0.2,-1.8"
         id="path146" /></clipPath><linearGradient
       x1="0"
       y1="0"
       x2="1"
       y2="0"
       gradientUnits="userSpaceOnUse"
       gradientTransform="matrix(-412.556,676.219,676.219,412.556,4702.56,5005.53)"
       spreadMethod="pad"
       id="linearGradient156"><stop
         style="stop-opacity:1;stop-color:#bfcad3"
         offset="0"
         id="stop150" /><stop
         style="stop-opacity:1;stop-color:#bfcad3"
         offset="0.161403"
         id="stop152" /><stop
         style="stop-opacity:1;stop-color:#99b1c3"
         offset="1"
         id="stop154" /></linearGradient></defs><sodipodi:namedview
     pagecolor="#ffffff"
     bordercolor="#666666"
     borderopacity="1"
     objecttolerance="10"
     gridtolerance="10"
     guidetolerance="10"
     inkscape:pageopacity="0"
     inkscape:pageshadow="2"
     inkscape:window-width="640"
     inkscape:window-height="480"
     id="namedview4" /><g
     id="g10"
     inkscape:groupmode="layer"
     inkscape:label="ink_ext_XXXXXX"
     transform="matrix(1.3333333,0,0,-1.3333333,0,1200)"><g
       id="g12"
       transform="scale(0.1)"><path
         d="m 7436.87,1478.38 c 0,-55.23 -44.78,-100 -100,-100 H 1118.63 c -55.23,0 -100,44.77 -100,100 v 13.23 c 0,55.22 44.77,100 100,100 h 6218.24 c 55.22,0 100,-44.78 100,-100 v -13.23"
         style="fill:#cbcde1;fill-opacity:1;fill-rule:nonzero;stroke:none"
         id="path14" /><path
         d="m 3710.72,5150.36 99.49,71.47 188.85,51.97 c 34.87,-21.88 18.97,-69.22 -15.9,-91.09 l -272.44,-32.35"
         style="fill:#f8a08d;fill-opacity:1;fill-rule:nonzero;stroke:none"
         id="path16" /><path
         d="m 1225.43,1830.99 33.36,38.91 291.12,-143.7 v -149.56 l -324.48,254.35"
         style="fill:#c9541f;fill-opacity:1;fill-rule:nonzero;stroke:none"
         id="path18" /><path
         d="m 2536.37,1576.71 -5.86,87.95 276.82,19.73 47.6,-143.52 -318.56,35.84"
         style="fill:#c9541f;fill-opacity:1;fill-rule:nonzero;stroke:none"
         id="path20" /><path
         d="m 1972.53,4377.19 -311.71,626.61 c -9.01,18.11 -14.38,38.4 -14.99,59.95 -0.63,21.54 3.57,42.09 11.54,60.69 l 408.86,955.15 200.96,-131.14 -348.09,-875.39 288.1,-579.14 -234.67,-116.73"
         style="fill:#576a9a;fill-opacity:1;fill-rule:nonzero;stroke:none"
         id="path22" /><path
         d="m 1597.4,1679.67 -378.11,212.43 628.31,1118.26 121.75,961.51 430.25,-54.48 -132.4,-1045.57 -669.8,-1192.15"
         style="fill:#3e4f7b;fill-opacity:1;fill-rule:nonzero;stroke:none"
         id="path24" /><path
         d="m 6973.98,1564.62 -294.89,-23.75 18.1,250.03 h 281.96 l -5.17,-226.28"
         style="fill:#4e2516;fill-opacity:1;fill-rule:nonzero;stroke:none"
         id="path26" /><path
         d="m 6204.61,1380.41 h 498.2 l 68.98,35.33 v -35.33 h 202.19 v 184.21 l -291.79,0.97 c 40.17,27.81 3.02,99.07 3.02,99.07 l -234.92,-116.76 -245.68,-47.24 v -120.25"
         style="fill:#131312;fill-opacity:1;fill-rule:nonzero;stroke:none"
         id="path28" /><path
         d="m 6830.86,3974.94 h -305.81 l -171.03,228.96 v -228.96 l 281.12,-2277.67 h 585.49 l -389.77,2277.67"
         style="fill:#522e1d;fill-opacity:1;fill-rule:nonzero;stroke:none"
         id="path30" /><path
         d="m 7167.34,1564.62 -309.76,-23.75 -19.41,250.03 h 281.95 l 47.22,-226.28"
         style="fill:#c9541f;fill-opacity:1;fill-rule:nonzero;stroke:none"
         id="path32" /><path
         d="m 6397.97,1380.41 h 498.2 l 68.99,35.33 v -35.33 h 265.74 l -38.8,180.89 -335.08,4.29 c 40.17,27.81 -8.57,92.82 -8.57,92.82 l -204.8,-110.51 -245.68,-47.24 v -120.25"
         style="fill:#1a2830;fill-opacity:1;fill-rule:nonzero;stroke:none"
         id="path34" /><path
         d="M 7141.81,4339.49 H 6354.02 V 4203.9 l 132.83,-239.77 340.5,-2266.86 h 393.28 l -183.37,2028.28 104.55,249.39 v 364.55"
         style="fill:#6c3d24;fill-opacity:1;fill-rule:nonzero;stroke:none"
         id="path36" /><path
         d="m 2801.74,1687.74 -401.99,-34.25 -370.46,2050.01 -99.96,128.85 c -13.49,17.36 -25.11,36.62 -34.37,57.66 -9.28,21.04 -15.66,42.6 -19.38,64.27 l -7.43,43.13 -33.98,197.02 76.19,3.07 754.02,30.55 -12.57,-51.97 -0.27,-1.53 -67.79,-281.26 217.99,-2205.55"
         style="fill:#576a9a;fill-opacity:1;fill-rule:nonzero;stroke:none"
         id="path38" /><path
         d="m 6337.72,4218.81 -161.47,-5.89 88.47,529.61 z"
         style="fill:#255178;fill-opacity:1;fill-rule:nonzero;stroke:none"
         id="path40" /><path
         d="m 6354.02,4145.75 787.79,-145.19 -10.98,296.99 -776.81,-93.09 3.08,-46.34"
         style="fill:#522e1d;fill-opacity:1;fill-rule:nonzero;stroke:none"
         id="path42" /><path
         d="m 2784,4190.2 c 0,0 -974.7,-18.7 -1004.5,11.1 -64.7,64.8 162.7,676.1 196.8,1649.3 0,0 107.1,440.6 375.2,468.2 143.4,14.8 265.9,-80.4 265.9,-80.4 0,0 105.5,-257.7 124.2,-352 65.2,-329.2 23.6,-725.2 23.6,-725.2 l 0.9,-30.9 11.3,-408.7 0.6,-46.3 6,-485.1"
         style="fill:#7485a9;fill-opacity:1;fill-rule:nonzero;stroke:none"
         id="path44" /><path
         d="m 2778,4675.3 -132.59,30.07 c -77.19,17.5 -139.93,73.51 -166.03,148.23 l -305.18,873.6 406.1,-512 185.8,-84.9 11.3,-408.7 0.6,-46.3"
         style="fill:#3e4f7b;fill-opacity:1;fill-rule:nonzero;stroke:none"
         id="path46" /><path
         d="m 3364.67,1378.38 h -536.36 l -74.28,38.05 v -38.05 h -217.66 v 198.33 l 274.22,1.04 c -43.24,29.93 -3.26,106.64 -3.26,106.64 l 292.85,-125.68 264.49,-50.87 v -129.46"
         style="fill:#231712;fill-opacity:1;fill-rule:nonzero;stroke:none"
         id="path48" /><path
         d="m 1225.43,1830.99 281.01,-180.46 c -15.96,46.96 43.47,75.67 43.47,75.67 l 117.38,-170.89 246.79,-38.85 9.56,-104.88 -364.02,-33.2 -187.73,106.2 -22.47,74.8 -38.84,-50.08 -190.59,127.18 105.44,194.51"
         style="fill:#231712;fill-opacity:1;fill-rule:nonzero;stroke:none"
         id="path50" /><path
         d="m 2235.35,6237.81 357.91,-229.28 46.74,338.14 228.56,38.57 -355.23,388.1 -156.83,-168.37 -121.15,-367.16"
         style="fill:#d86b69;fill-opacity:1;fill-rule:nonzero;stroke:none"
         id="path52" /><path
         d="m 2268.93,6421.3 468.46,-555.82 -552.91,385.43 z"
         style="fill:#576a9a;fill-opacity:1;fill-rule:nonzero;stroke:none"
         id="path54" /><path
         d="m 2291.01,6454.41 348.13,-335.5 71.69,-218.14 -441.9,520.53 22.08,33.11"
         style="fill:#ffffff;fill-opacity:1;fill-rule:nonzero;stroke:none"
         id="path56" /><path
         d="m 5281.57,4922.56 -15.11,272.78 616.11,134.54 525.75,802.02 206.06,-360.83 -409.49,-614.33 c -22.56,-33.83 -52.32,-63.65 -88.93,-86.78 -36.6,-23.13 -76.3,-37.22 -116.55,-43.08 l -717.84,-104.32"
         style="fill:#255178;fill-opacity:1;fill-rule:nonzero;stroke:none"
         id="path58" /><path
         d="m 7165.1,4787.5 -34.3,-489.9 -287.5,-39.4 -600.8,-82.3 41.6,1294.9 10.2,334.4 c 0,0 209.11,576.1 447.1,597.4 249.31,22.2 379.31,-307.8 379.31,-307.8 l 22.19,-653.7 22.2,-653.6"
         style="fill:#346ca6;fill-opacity:1;fill-rule:nonzero;stroke:none"
         id="path60" /><path
         d="m 7165.1,4787.5 -34.3,-489.9 -287.5,-39.4 140,711 -139.7,824.5 299.3,-352.6 22.2,-653.6"
         style="fill:#255178;fill-opacity:1;fill-rule:nonzero;stroke:none"
         id="path62" /><path
         d="m 6859.64,6333.7 -351.38,-237.6 -71.29,400.04 316.62,329.61 106.05,-492.05"
         style="fill:#ed645d;fill-opacity:1;fill-rule:nonzero;stroke:none"
         id="path64" /><path
         d="m 6818.85,6553.21 -321.38,-409.1 -114.79,-488.84 442.71,860.97 -6.54,36.97"
         style="fill:#ffffff;fill-opacity:1;fill-rule:nonzero;stroke:none"
         id="path66" /><path
         d="m 6491.26,6192.25 -83.4,-327.52 89.61,279.38 z"
         style="fill:#ffffff;fill-opacity:1;fill-rule:nonzero;stroke:none"
         id="path68" /><path
         d="m 6486.18,6229.34 -77.86,-97.44 -25.64,-476.63 108.58,536.98 -5.08,37.09"
         style="fill:#4b94c4;fill-opacity:1;fill-rule:nonzero;stroke:none"
         id="path70" /><path
         d="m 6497.47,6144.11 -33.23,-57.97 44.71,-23.09 z"
         style="fill:#ed2127;fill-opacity:1;fill-rule:nonzero;stroke:none"
         id="path72" /><path
         d="m 6464.24,6086.14 c 0,0 -105.75,-322.42 -81.56,-430.87 13.77,21.47 130.86,374.32 130.86,374.32 l -4.59,33.46 c -22.17,10.99 -44.71,23.09 -44.71,23.09"
         style="fill:#ed2127;fill-opacity:1;fill-rule:nonzero;stroke:none"
         id="path74" /><path
         d="m 6792.17,4682.59 h -352.74 v 119.88 h 352.74 v -119.88"
         style="fill:#4b94c4;fill-opacity:1;fill-rule:nonzero;stroke:none"
         id="path76" /><path
         d="M 2657.32,4477.73 H 2304.6 v 119.88 h 352.72 v -119.88"
         style="fill:#576a9a;fill-opacity:1;fill-rule:nonzero;stroke:none"
         id="path78" /><path
         d="m 7340.76,3901.78 9.7,92.6 -236.12,14.45 -2.88,-81.31 229.3,-25.74"
         style="fill:#f8a378;fill-opacity:1;fill-rule:nonzero;stroke:none"
         id="path80" /><path
         d="m 7346.83,3957.85 -228.28,25.07 -3.77,27.41 235.68,-15.95 -3.63,-36.53"
         style="fill:#ee8064;fill-opacity:1;fill-rule:nonzero;stroke:none"
         id="path82" /><path
         d="m 7111.46,3998.82 238.35,-15.9 6.87,102.98 -238.33,15.89 -6.89,-102.97"
         style="fill:#f5f6f5;fill-opacity:1;fill-rule:nonzero;stroke:none"
         id="path84" /><path
         d="m 7084.68,3893.21 c 0,0 -46.77,-77.27 -51.09,-106.09 -5.3,-35.2 33.51,-117.57 33.51,-117.57 l 17.58,41.21 v 182.45"
         style="fill:#ee8064;fill-opacity:1;fill-rule:nonzero;stroke:none"
         id="path86" /><path
         d="m 7118.55,4102.51 190.17,-47.08 1.91,-69.89 39.18,-2.62 8.67,102.45 -239.93,17.14"
         style="fill:#d7e1e0;fill-opacity:1;fill-rule:nonzero;stroke:none"
         id="path88" /><path
         d="m 6671.66,3227.26 v -432.3 h 1045 c 9.47,0 18.03,3.9 24.09,10.15 6.25,6.43 9.98,15 9.98,24.61 v 397.54 H 6671.66"
         style="fill:#2d4759;fill-opacity:1;fill-rule:nonzero;stroke:none"
         id="path90" /><path
         d="m 6671.66,3585.58 v -358.32 h 1096.85 v 324.09 c 0,17.1 -12.14,31.38 -28.18,34.23 H 6671.66"
         style="fill:#2d4759;fill-opacity:1;fill-rule:nonzero;stroke:none"
         id="path92" /><path
         d="m 6671.73,3190.71 h 1079 v 36.57 h -1079 v -36.57"
         style="fill:#152735;fill-opacity:1;fill-rule:nonzero;stroke:none"
         id="path94" /><path
         d="m 7325.66,3227.28 v -47.3 c 0,-36.94 -29.93,-66.88 -66.87,-66.88 -36.95,0 -66.89,29.94 -66.89,66.88 v 47.3 h 133.76"
         style="fill:#152735;fill-opacity:1;fill-rule:nonzero;stroke:none"
         id="path96" /><path
         d="m 7298.91,3227.28 v -47.3 c 0,-36.94 -29.94,-66.88 -66.88,-66.88 -36.94,0 -66.88,29.94 -66.88,66.88 v 47.3 h 133.76"
         style="fill:#d7e1e0;fill-opacity:1;fill-rule:nonzero;stroke:none"
         id="path98" /><path
         d="m 7407.4,3585.62 v 0 c 0,66.92 -46.38,121.19 -103.59,121.19 h -143.55 c -57.2,0 -103.59,-54.27 -103.59,-121.19"
         style="fill:none;stroke:#152735;stroke-width:63.2636;stroke-linecap:butt;stroke-linejoin:miter;stroke-miterlimit:10;stroke-dasharray:none;stroke-opacity:1"
         id="path100" /><path
         d="m 6637.56,2829.69 c 0,-19.19 15.29,-34.73 34.17,-34.73 18.85,0 34.19,15.54 34.19,34.73 v 721.22 c 0,19.18 -15.34,34.71 -34.19,34.71 -18.88,0 -34.17,-15.53 -34.17,-34.71 v -721.22"
         style="fill:#152735;fill-opacity:1;fill-rule:nonzero;stroke:none"
         id="path102" /><path
         d="m 7078.27,3698.12 c 0,-35.05 21.83,-63.5 48.74,-63.5 h 196.47 c 26.91,0 48.74,28.45 48.74,63.5 v 177.95 c 0,35.06 -21.83,63.54 -48.74,63.54 h -196.47 c -26.91,0 -48.74,-28.48 -48.74,-63.54 v -177.95"
         style="fill:#f8a378;fill-opacity:1;fill-rule:nonzero;stroke:none"
         id="path104" /><path
         d="m 7105.28,4101.79 286.46,-21.39 74.53,879.03 c 3.21,37.92 2.58,76.76 -2.39,116.07 -4.96,39.31 -13.99,77.06 -26.53,113 l -312.37,895.16 c -33.04,94.67 -136.56,144.63 -231.23,111.59 -94.67,-33.03 -144.63,-136.55 -111.59,-231.22 l 326.02,-934.3 -2.9,-927.94"
         style="fill:#4b94c4;fill-opacity:1;fill-rule:nonzero;stroke:none"
         id="path106" /><path
         d="m 6825.39,6516.24 c -189.92,-237.77 -400.36,-668.17 -471.37,-964.08 l 547.25,800.61 -75.88,163.47"
         style="fill:#4b94c4;fill-opacity:1;fill-rule:nonzero;stroke:none"
         id="path108" /><path
         d="m 4881.17,5142.59 c 2.97,-15.38 -13.06,-31.42 -35.81,-35.81 -22.74,-4.39 -43.59,4.52 -46.56,19.9 l -17.35,89.86 c -2.98,15.38 13.06,31.42 35.8,35.81 22.75,4.39 68.2,16.5 71.18,1.12 l -7.26,-110.88"
         style="fill:#ed645d;fill-opacity:1;fill-rule:nonzero;stroke:none"
         id="path110" /><path
         d="m 4861.18,5113 35.93,60.75 -72.72,43.02 -35.94,-60.74 -0.19,0.12 -21.35,-36.09 c -5.55,-9.37 -7.52,-20.87 -4.6,-32.26 2.93,-11.39 10.19,-20.52 19.57,-26.07 l 36.28,-21.46 60.54,-35.81 15.35,25.95 c 7.09,11.97 9.6,26.65 5.87,41.18 -3.72,14.54 -13,26.19 -24.97,33.26 l -13.77,8.15"
         style="fill:#ed645d;fill-opacity:1;fill-rule:nonzero;stroke:none"
         id="path112" /><path
         d="m 4817.93,5092.59 35.93,60.74 -72.73,43.03 -35.93,-60.75 -0.2,0.12 -21.34,-36.07 c -5.56,-9.39 -7.52,-20.89 -4.6,-32.28 2.92,-11.38 10.19,-20.51 19.56,-26.06 l 36.28,-21.46 60.55,-35.82 15.36,25.96 c 7.08,11.96 9.59,26.64 5.86,41.18 -3.73,14.53 -13,26.18 -24.98,33.26 l -13.76,8.15"
         style="fill:#ed645d;fill-opacity:1;fill-rule:nonzero;stroke:none"
         id="path114" /><path
         d="m 5148,5195.3 -42.8,-113.5 h -157.6 v 56.1 h -24.7 c 17,30.4 -15.4,56.5 -38.1,61 -6.4,1.3 -6.1,37.6 -12,38 -9.4,0.6 -31,-9.7 -41.5,-11.5 -3.4,-0.5 -6.7,-1.9 -10.1,-4 -16.2,-9.5 -33.8,-32.8 -64.4,-42.8 -0.9,-0.4 -1.9,-0.7 -2.8,-1 -10,-2.9 -20.8,-6.1 -32.7,-9.5 -22.2,-6.4 -39.8,-12.4 -56.4,-18.6 l 9,15.2 -85.4,50.5 c 20.6,7.9 42.3,17.1 63.7,27.6 27.2,13.3 57.5,27.1 87.1,40.1 25.9,11.5 51.3,22.4 73.5,31.7 42.7,18 73.6,30.3 73.6,30.3 15.1,6.1 31.4,4.2 44.4,-3.6 l 1,-0.4 216.2,-145.6"
         style="fill:#f89f8d;fill-opacity:1;fill-rule:nonzero;stroke:none"
         id="path116" /><path
         d="m 4821.2,5221.4 c -16.2,-9.5 -33.8,-32.8 -64.4,-42.8 l -33.8,50.8 16.3,53.5 c 25.9,11.5 51.3,22.4 73.5,31.7 -3.7,-26.6 -1.6,-64.4 8.4,-93.2"
         style="fill:#ed645d;fill-opacity:1;fill-rule:nonzero;stroke:none"
         id="path118" /><path
         d="m 5266.46,5195.34 11.77,-212.48 h -62.77 v 212.48 h 51"
         style="fill:#def4f7;fill-opacity:1;fill-rule:nonzero;stroke:none"
         id="path120" /><path
         d="m 5183.84,4982.86 h 31.62 v 212.15 h -9.2 l -22.42,-212.15"
         style="fill:#ed645d;fill-opacity:1;fill-rule:nonzero;stroke:none"
         id="path122" /><g
         id="g124"><g
           id="g126"
           clip-path="url(#clipPath130)"><path
             d="m 4729.9,5061.8 -9.4,1.02 -407.6,44.08 33.6,311.5 462.5,-50 -5.95,-57.9 -11.58,-112.63 -0.74,-7.2 -3.13,-30.47 -81.4,15.2 -19.5,-42.6 43.2,-71"
             style="fill:url(#linearGradient138);fill-opacity:1;fill-rule:nonzero;stroke:none"
             id="path140" /></g></g><g
         id="g142"><g
           id="g144"
           clip-path="url(#clipPath148)"><path
             d="m 4777,5056.7 -47.1,5.1 -43.2,71 19.5,42.6 81.4,-15.2 -10.2,-100 -0.2,-1.7 -0.2,-1.8"
             style="fill:url(#linearGradient156);fill-opacity:1;fill-rule:nonzero;stroke:none"
             id="path158" /></g></g><path
         d="m 4703.47,5251.33 v 0 l -180.01,19.66 2.18,19.95 180,-19.66 -2.17,-19.95"
         style="fill:#adadab;fill-opacity:1;fill-rule:nonzero;stroke:none"
         id="path160" /><path
         d="m 4458.43,5277.13 -62.57,6.48 2.18,19.95 62.57,-6.48 -2.18,-19.95"
         style="fill:#6a7379;fill-opacity:1;fill-rule:nonzero;stroke:none"
         id="path162" /><path
         d="m 4708.66,5293.73 v 0 l -180.01,19.66 2.81,25.79 v 0 l 180.01,-19.66 v 0 l -2.81,-25.79"
         style="fill:#6a7379;fill-opacity:1;fill-rule:nonzero;stroke:none"
         id="path164" /><path
         d="m 4465.14,5319.68 v 0 l -67.19,7.34 3.39,31.1 v 0 l 67.19,-7.33 v -0.01 l -3.39,-31.1"
         style="fill:#f14e42;fill-opacity:1;fill-rule:nonzero;stroke:none"
         id="path166" /><path
         d="m 4653.9,5245.78 -2.18,-19.95 -131.62,14.38 2.18,19.95 131.62,-14.38"
         style="fill:#adadab;fill-opacity:1;fill-rule:nonzero;stroke:none"
         id="path168" /><path
         d="m 4678.78,5191.72 v 0 l -162.04,17.7 2.18,19.95 162.04,-17.7 h 0.01 l -2.19,-19.95"
         style="fill:#adadab;fill-opacity:1;fill-rule:nonzero;stroke:none"
         id="path170" /><path
         d="m 5023.67,5253.47 h -149.72 c 14.44,-18.8 19.8,-46.84 -14.51,-63.59 -4.32,-2.11 -14,-1.72 -25.32,-0.22 -10.86,1.5 -23.17,4.01 -33.56,6.35 -13.06,2.97 -64.66,17.25 -64.66,17.25 -7.02,2.15 -17.98,-0.09 -28.59,-5.66 -12.77,-6.67 -25.08,-18.19 -29.5,-32.72 -8.07,-26.56 13.41,-53.21 28.84,-57.91 l 7.21,-1.98 58.63,-16.39 44.05,-12.34 207.13,-101.05 v 268.26"
         style="fill:#f89f8d;fill-opacity:1;fill-rule:nonzero;stroke:none"
         id="path172" /><path
         d="m 5023.67,4985.21 160.17,-2.35 22.42,212.15 -58.25,0.33 -190.73,-105.14 66.39,-104.99"
         style="fill:#f89f8d;fill-opacity:1;fill-rule:nonzero;stroke:none"
         id="path174" /><path
         d="m 3558.48,5146.26 -720.5,30 -362.71,758.6 c -43.97,84.03 -167.73,106.5 -251.76,62.52 -84.02,-43.98 -116.49,-147.74 -72.52,-231.76 l 423.66,-838.41 c 11.58,-22.38 29.32,-41.89 52.64,-55.62 23.3,-13.73 48.97,-19.8 74.16,-19.07 l 857.03,13.83 v 279.91"
         style="fill:#576a9a;fill-opacity:1;fill-rule:nonzero;stroke:none"
         id="path176" /><path
         d="m 2654.57,4187.48 v 0 l -786.42,-190.07 -33.98,197.02 76.19,3.07 744.21,-10.02"
         style="fill:#3e4f7b;fill-opacity:1;fill-rule:nonzero;stroke:none"
         id="path178" /><path
         d="m 3726.29,4893.26 -139.99,-7.65 -14.04,257.2 138.46,7.55 c 0.26,5.2 179.95,34.22 179.12,23.54 l 0.21,2.6 23.61,2.42 308.92,17.39 c 18.78,1.02 34.9,-13.51 35.97,-32.51 1.03,-18.96 -13.4,-35.18 -32.2,-36.23 l -230.52,-15.07 0.64,-10.73 246.79,15.96 c 18.79,1.04 34.95,-13.5 35.96,-32.52 1.03,-18.94 -13.4,-35.13 -32.27,-36.18 l -246.78,-16 0.6,-10.32 218.55,14.46 c 18.85,0.98 34.96,-13.56 35.99,-32.52 1.04,-19.01 -13.39,-35.23 -32.26,-36.25 l -218.52,-14.45 0.57,-10.36 187.37,12.74 c 18.86,1.09 34.94,-13.49 36.04,-32.5 0.95,-18.93 -13.42,-35.2 -32.27,-36.22 l -265.82,-15.02 c 0,0 -201.56,14.19 -204.13,20.67"
         style="fill:#f89f8d;fill-opacity:1;fill-rule:nonzero;stroke:none"
         id="path180" /><path
         d="m 3558.48,5146.26 h 91.78 v -257.15 l -91.78,-6.19 v 263.34"
         style="fill:#ffffff;fill-opacity:1;fill-rule:nonzero;stroke:none"
         id="path182" /><path
         d="m 3558.48,5146.26 16.55,-2.75 29.34,-185.27 h 45.89 v -69.13 l -91.78,-6.19 v 263.34"
         style="fill:#d7e1e0;fill-opacity:1;fill-rule:nonzero;stroke:none"
         id="path184" /><path
         d="m 6134.94,7024.98 c -18.57,-40.4 -41.92,-14.09 -46.56,-49.62 -12.23,-93.73 -102.64,-155.79 -98.79,-192.96 3.08,-29.76 71.19,-62.15 130.27,-54.24 53.44,7.15 62.48,154.18 62.48,154.18 l -47.4,142.64"
         style="fill:#f89d8a;fill-opacity:1;fill-rule:nonzero;stroke:none"
         id="path186" /><path
         d="m 6075.98,6906.88 c 14.06,-153.96 131.08,-266.96 94.93,-392.76 -6.98,-24.29 -12.54,-49.73 28.93,-57.99 48.14,-9.59 227.77,-8.85 232.1,-9.44 51.74,-7.03 99.96,39.08 140.37,72.16 182.05,149.05 298.09,458.45 278.31,675.23 -23.66,259.38 -74.08,271.03 -393.26,241.91 -319.18,-29.12 -405.04,-269.73 -381.38,-529.11"
         style="fill:#ed645d;fill-opacity:1;fill-rule:nonzero;stroke:none"
         id="path188" /><path
         d="m 6067.39,6959.83 c 9.46,-84.28 9.96,-244.7 19.5,-311.78 0.42,-3.79 1.02,-7.17 1.61,-10.35 1.38,-9.06 2.75,-17.81 4.1,-26.26 8.94,-53.51 18.9,-94.99 39.29,-121.26 3.96,-5.28 8.4,-9.84 13.42,-13.89 30.03,-24.37 80.3,-23.94 128.64,-19.26 159.37,15.35 292.9,153.67 325,333.59 l 0.18,0.6 c 7.26,40.5 9.26,83.25 5.33,127.11 -21.78,238.65 -68.9,521.81 -339.16,461.59 -184.88,-41.23 -227.9,-154.8 -197.91,-420.09"
         style="fill:#f89d8a;fill-opacity:1;fill-rule:nonzero;stroke:none"
         id="path190" /><path
         d="m 6116.79,7289.96 c 2.39,-0.85 8.16,2.16 10.48,3.22 227.26,100.05 339.03,16.48 319.34,-129.09 -16.26,-120.32 4.82,-279.6 92.7,-202.35 7.33,6.45 9.75,-1.57 43.64,-46.27 l -0.01,-0.08 c 105.31,-134.11 113.96,-96.43 121.05,-135.79 17.13,-103.94 57.2,-109.08 98.83,-124.29 27.95,-9.12 4.08,-43.66 24.77,-1.9 55.37,117.19 211.5,270.86 205.24,426.75 l -0.02,0.58 c -1.74,60.83 -28.8,111.95 -72.8,155.12 -1.04,1.08 -1.56,2.43 -1.42,3.89 40.94,425.15 -437.12,335.15 -549.97,392.4 -19.08,9.73 12.01,-58.69 20.95,-76.56 1.98,-4.01 -1.87,-8.45 -6.04,-6.91 -155.3,53.94 -310.59,-95.83 -446.18,-56.97 -1.03,0.34 -2.05,0.69 -3.08,1.03 -18.42,5.88 1.26,-140.08 142.52,-202.78"
         style="fill:#4e2225;fill-opacity:1;fill-rule:nonzero;stroke:none"
         id="path192" /><path
         d="m 6114.99,7290.67 1.82,-0.64 c 1.22,-0.45 2.53,-0.38 3.68,0.21 2.28,1.02 4.48,2.12 6.76,2.96 69.8,24.88 129.71,48.75 206.44,41.7 -114.21,27.98 -342.71,88.7 -356.34,156.85 -1.04,0.37 -2.09,0.64 -3.13,0.92 -21.13,6.85 10.87,-152.93 140.77,-202"
         style="fill:#3d191a;fill-opacity:1;fill-rule:nonzero;stroke:none"
         id="path194" /><path
         d="m 6582.95,6915.47 -0.01,-0.08 c 2.45,-3.12 83.31,-110.14 85.99,-113.68 5.79,-83.71 68.51,-193.5 137.23,-209.96 21.08,122.11 219.36,302.4 226.29,467.53 0.7,7.28 0.45,21.21 0.36,21.46 -0.55,19.05 -3.54,36.47 -8.91,54.57 5.98,-89.97 -157.59,-172.9 -348.16,-103.04 -74.59,27.37 -60.08,-110.11 -71.95,-71.12 -0.68,2.27 -9.02,-16.79 -20.84,-45.68"
         style="fill:#3d191a;fill-opacity:1;fill-rule:nonzero;stroke:none"
         id="path196" /><path
         d="m 6160.75,6961.6 c 2.21,-24.12 13.6,-42.8 25.45,-41.72 11.85,1.08 19.68,21.52 17.48,45.64 -2.2,24.12 -13.59,42.8 -25.45,41.72 -11.85,-1.08 -19.67,-21.52 -17.48,-45.64"
         style="fill:#332018;fill-opacity:1;fill-rule:nonzero;stroke:none"
         id="path198" /><path
         d="m 6514.63,6961.85 c -26.22,-67.12 0.35,-140.21 59.34,-163.25 59,-23.03 115.69,13.88 141.91,80.99 26.21,67.12 12.03,139.04 -46.96,162.08 -59,23.03 -128.07,-12.7 -154.29,-79.82"
         style="fill:#f89d8a;fill-opacity:1;fill-rule:nonzero;stroke:none"
         id="path200" /><path
         d="m 6268.98,7053.56 c -37.02,51.46 -100.57,61.92 -155.24,32.89 -15.07,-8.01 -1.69,-30.9 13.38,-22.9 42.55,22.61 93.06,12.65 118.97,-23.37 9.87,-13.72 32.87,-0.51 22.89,13.38"
         style="fill:#8b331e;fill-opacity:1;fill-rule:nonzero;stroke:none"
         id="path202" /><path
         d="m 6596.48,7601.12 c 4.06,-0.88 8.22,-1.68 12.6,-2.67 287.03,-59.3 239.71,-319.16 209.97,-419.25 -1.45,-4.9 4.4,-8.4 8.15,-4.93 34.21,31.36 129.64,47.25 131.39,65.48 2.3,23.88 3.18,52.19 1.54,75.94 -13.26,201.16 -162.39,262.99 -363.65,285.43"
         style="fill:#3d191a;fill-opacity:1;fill-rule:nonzero;stroke:none"
         id="path204" /><path
         d="m 6961.05,7025.62 c -38.88,-166.19 -183.64,-238.88 -154.14,-435.43 32.68,122.26 240.99,314.63 233.99,489.19 l -0.03,0.58 c -1.75,61.35 -29.16,112.31 -72.8,155.13 -1.03,1.08 -1.55,2.42 -1.41,3.88 21.27,220.96 -95.17,326.13 -320.56,355.99 205.58,-29.8 284.86,-216.21 269.52,-375.49 51.12,-50.1 61.86,-123.58 45.43,-193.85"
         style="fill:#6b2b3b;fill-opacity:1;fill-rule:nonzero;stroke:none"
         id="path206" /><path
         d="m 6086.89,6648.05 c 0.42,-3.79 1.02,-7.17 1.61,-10.35 1.38,-9.06 2.75,-17.81 4.1,-26.26 33.37,0.71 65.09,9.48 89.21,18.31 23.43,8.61 14.53,45.03 -9.2,36.3 -20.56,-7.72 -53.17,-16.71 -85.72,-18"
         style="fill:#ed645d;fill-opacity:1;fill-rule:nonzero;stroke:none"
         id="path208" /><path
         d="m 6146.95,6475.04 c 30.19,-23.07 79.56,-22.56 127,-18.01 159.37,15.35 292.9,153.67 325,333.59 -4.72,-15.64 -68.48,-351.16 -452,-315.58"
         style="fill:#ed645d;fill-opacity:1;fill-rule:nonzero;stroke:none"
         id="path210" /><path
         d="m 3030,6689.4 c 1.3,-15.3 6.5,-33.6 11.3,-49.8 l 0.1,-0.4 c 0.6,-3.8 0.3,-7.4 -0.5,-10.7 -0.2,-0.9 -0.6,-1.9 -1,-2.8 -2.4,-6.3 -7,-11.2 -10.9,-14.4 -3.6,-3.1 -6.6,-4.7 -6.6,-4.7 0,0 27,-14.4 -1,-57.7 1.4,-9.6 2.4,-18.7 2.8,-27.4 1.19,-24.58 -1.22,-51.28 -11.8,-73.6 l -0.1,-0.2 c -1.5,-3.2 -3.1,-6.3 -5,-9.3 l -0.1,-0.2 c -35.48,-70.88 -159.81,-58.83 -237.2,-41.9 l -0.2,0.1 c -251.39,62.85 -252.16,290.07 -260,326.9 -6.74,9.42 -20.36,-4.42 -32.2,-5.9 -2.27,-0.24 -4.71,1.55 -7.19,3.35 -5.7,4.11 -11.66,8.23 -16.61,-12.25 -66.7,34.7 -127.2,18.8 -138.4,93.2 l -48.6,261.9 389.7,290.1 308.8,-94.6 c 0,0 32.8,-189.1 28,-249.6 -2.2,-29.2 -11.9,-63.9 -3.3,-80.7 7.6,-15 60,-82.6 121.8,-175.3 24.7,-37 -38.2,-57.2 -81.8,-64.1"
         style="fill:#f8a08d;fill-opacity:1;fill-rule:nonzero;stroke:none"
         id="path212" /><path
         d="m 2973.58,7043.6 c 0,0 -124.41,-8.08 -155.32,-72.87 6.32,-2.05 6.32,-2.05 6.32,-2.05 0,0 102.24,30.33 126.44,29.44 11.48,13.75 22.56,45.48 22.56,45.48"
         style="fill:#f8a08d;fill-opacity:1;fill-rule:nonzero;stroke:none"
         id="path214" /><path
         d="m 2969.75,7043.78 c 0,0 -144.42,-31.7 -148.52,-79.69 27.08,18.7 91.8,27.53 120.34,33.86 10.43,2.31 19.06,9.39 23.56,19.09 3.85,8.31 6.94,18.45 4.62,26.74"
         style="fill:#8e5950;fill-opacity:1;fill-rule:nonzero;stroke:none"
         id="path216" /><path
         d="m 2852.09,6898.16 c 18.55,29.23 56.73,30.26 71.1,28.15"
         style="fill:none;stroke:#502420;stroke-width:22.3099;stroke-linecap:round;stroke-linejoin:miter;stroke-miterlimit:10;stroke-dasharray:none;stroke-opacity:1"
         id="path218" /><path
         d="m 2859.93,6383.79 c -31.85,1.55 -63.6,6.75 -89.93,12.51 l -0.2,0.1 v 0 0 l 0.2,-0.1 c 26.33,-5.76 58.08,-10.96 89.93,-12.51 v 0 m -238.57,87.53 c -76.64,67.61 -96.41,154.7 -102.83,193.43 10.15,-54.15 34.27,-132.62 102.83,-193.43"
         style="fill:#c05f5f;fill-opacity:1;fill-rule:nonzero;stroke:none"
         id="path220" /><path
         d="m 2515.19,6684.68 c -0.03,0.05 -0.06,0.09 -0.09,0.12 -2.8,18.7 -4,32.4 -5.3,38.5 v 0 0 c 1.48,-6.92 2.7,-20.58 5.39,-38.62 m -29.24,35.27 c 2.85,1.24 5.69,2.7 8.41,3.93 -2.71,-1.23 -5.55,-2.7 -8.41,-3.93"
         style="fill:#c05f5f;fill-opacity:1;fill-rule:nonzero;stroke:none"
         id="path222" /><path
         d="m 2878.78,6383.31 c -6.26,0 -12.55,0.17 -18.85,0.48 -31.85,1.55 -63.6,6.75 -89.93,12.51 l -0.2,0.1 v 0 c -64.74,16.19 -112.75,43.44 -148.44,74.92 -68.56,60.81 -92.68,139.28 -102.83,193.43 -1.91,11.51 -2.65,18.74 -3.34,19.93 -2.69,18.04 -3.91,31.7 -5.39,38.62 v 0 c -1.7,2.37 -3.82,3.28 -6.23,3.28 -2.75,0 -5.89,-1.18 -9.21,-2.7 -2.72,-1.23 -5.56,-2.69 -8.41,-3.93 -1.95,-0.84 -3.91,-1.57 -5.85,-2.05 -10.1,10.3 -18.5,20.3 -19.2,25.3 148.9,30.8 125,106.1 125,108.2 -0.8,5.8 45.6,34.6 45.6,34.6 53.89,-181.56 171.89,-221.65 265.57,-221.65 74.07,0 132.93,25.05 132.93,25.05 1.3,-15.3 6.5,-33.6 11.3,-49.8 l 0.1,-0.4 c 0.22,-1.37 0.32,-2.7 0.32,-4.01 0,-2.34 -0.31,-4.57 -0.82,-6.69 -0.2,-0.9 -0.6,-1.9 -1,-2.8 -2.4,-6.3 -7,-11.2 -10.9,-14.4 v 0 c -39.2,-0.3 -97.4,-2.1 -97.4,-2.1 5.05,-78.06 41.42,-87.7 91.01,-87.7 0.53,0 1.06,0 1.59,0 0.18,-3.75 0.28,-7.54 0.28,-11.36 -0.01,-21.25 -3.11,-43.32 -12.08,-62.24 l -0.1,-0.2 c -1.5,-3.2 -3.1,-6.3 -5,-9.3 l -0.1,-0.2 c -21.02,-42 -73.26,-54.89 -128.42,-54.89"
         style="fill:#e08d7c;fill-opacity:1;fill-rule:nonzero;stroke:none"
         id="path224" /><path
         d="m 2225.85,6693.85 0.1,-0.08 c 165.05,42.74 165.05,42.74 165.05,42.74 -0.28,1.85 -17.24,56.71 -14.2,116.62 2.67,43.72 17.42,88.53 63.92,93.85 69.71,7.97 122.17,-88.24 126.13,-114.72 10.61,-1.48 36.4,6.45 45.93,7.87 13.32,2 27.56,19.86 27.16,44.88 -1.47,77.38 41.1,96.75 50.98,150.74 9.68,52.97 -3.63,119.02 -14.93,160.72 -3.85,14.32 7.19,27.34 20.81,27.39 2.35,-0.01 4.66,-0.38 7.02,-1.11 94.01,-30.69 323.62,-83.51 372.68,110.25 0,0 -339.7,239.28 -662.76,118.85 -138.89,-51.73 -140.61,-131.3 -140.61,-131.3 -168.81,-62.54 -233.08,-367.23 -47.28,-626.7"
         style="fill:#8e5950;fill-opacity:1;fill-rule:nonzero;stroke:none"
         id="path226" /><path
         d="m 2335.99,6542.79 c 47.26,14.76 148.24,170.81 148.24,170.81 0,0 -93.86,34.77 -107.47,139.56 -152.62,157.63 -182.28,413.41 -182.28,413.41 -213.01,-228.76 -29.26,-633.11 141.51,-723.78"
         style="fill:#6c4039;fill-opacity:1;fill-rule:nonzero;stroke:none"
         id="path228" /><path
         d="m 2695.46,7226.19 1.34,-2.33 c 2.35,-0.01 4.66,-0.38 7.02,-1.11 94.01,-30.69 323.62,-83.51 372.68,110.25 -11.32,-54.57 -266.67,-149.98 -381.04,-106.81"
         style="fill:#6c4039;fill-opacity:1;fill-rule:nonzero;stroke:none"
         id="path230" /><path
         d="m 2929.75,6611.33 c 36.71,-13.98 68.75,-8.64 92.63,-4.8 0,0 22.58,12.5 18.93,32.7 -59.35,-25.48 -111.56,-27.9 -111.56,-27.9"
         style="fill:#ce6161;fill-opacity:1;fill-rule:nonzero;stroke:none"
         id="path232" /><path
         d="m 2575.48,6858.5 c 26.77,-68.52 19.55,-103.79 -24.56,-140.81 -49.52,-41.57 -116.96,-4.8 -158.88,55.64 -42.11,60.71 -34.31,143.14 25.92,166.66 60.23,23.52 130.75,-12.97 157.52,-81.49"
         style="fill:#f8a08d;fill-opacity:1;fill-rule:nonzero;stroke:none"
         id="path234" /></g></g></svg>
