<?xml version="1.0" encoding="UTF-8" standalone="no"?>
<svg
   xmlns:dc="http://purl.org/dc/elements/1.1/"
   xmlns:cc="http://creativecommons.org/ns#"
   xmlns:rdf="http://www.w3.org/1999/02/22-rdf-syntax-ns#"
   xmlns:svg="http://www.w3.org/2000/svg"
   xmlns="http://www.w3.org/2000/svg"
   xmlns:sodipodi="http://sodipodi.sourceforge.net/DTD/sodipodi-0.dtd"
   xmlns:inkscape="http://www.inkscape.org/namespaces/inkscape"
   version="1.1"
   id="svg2"
   xml:space="preserve"
   width="2666.6667"
   height="2666.6667"
   viewBox="0 0 2666.6667 2666.6667"
   sodipodi:docname="1755831881-vector.eps"><metadata
     id="metadata8"><rdf:RDF><cc:Work
         rdf:about=""><dc:format>image/svg+xml</dc:format><dc:type
           rdf:resource="http://purl.org/dc/dcmitype/StillImage" /></cc:Work></rdf:RDF></metadata><defs
     id="defs6" /><sodipodi:namedview
     pagecolor="#ffffff"
     bordercolor="#666666"
     borderopacity="1"
     objecttolerance="10"
     gridtolerance="10"
     guidetolerance="10"
     inkscape:pageopacity="0"
     inkscape:pageshadow="2"
     inkscape:window-width="640"
     inkscape:window-height="480"
     id="namedview4" /><g
     id="g10"
     inkscape:groupmode="layer"
     inkscape:label="ink_ext_XXXXXX"
     transform="matrix(1.3333333,0,0,-1.3333333,0,2666.6667)"><g
       id="g12"
       transform="scale(0.1)"><path
         d="M 20000,0 H 0 V 20000 H 20000 V 0"
         style="fill:#ffffff;fill-opacity:1;fill-rule:evenodd;stroke:none"
         id="path14" /><path
         d="m 10042.4,1282.4 c 4846.1,0 8798.8,377.6 8798.8,840.1 0,462.5 -3952.7,840.2 -8798.8,840.2 -4846.93,0 -8799.66,-377.7 -8799.66,-840.2 0,-462.5 3952.73,-840.1 8799.66,-840.1 v 0"
         style="fill:#ccccff;fill-opacity:1;fill-rule:evenodd;stroke:none"
         id="path16" /><path
         d="m 10042.4,1282.4 c 4846.1,0 8798.8,377.6 8798.8,840.1 0,462.5 -3952.7,840.2 -8798.8,840.2 -4846.93,0 -8799.66,-377.7 -8799.66,-840.2 0,-462.5 3952.73,-840.1 8799.66,-840.1 z"
         style="fill:none;stroke:#ccccff;stroke-width:5.66929;stroke-linecap:butt;stroke-linejoin:miter;stroke-miterlimit:10;stroke-dasharray:none;stroke-opacity:1"
         id="path18" /><path
         d="M 6983,13009.1 C 3689.53,12694.8 1158.82,10837.4 1158.82,8592.9 c 0,-2465.4 3050.1,-4462.8 6813.53,-4462.8 1167.45,0 2265.85,192.1 3226.35,531.5 719.8,-337.5 1543.2,-528.7 2417.9,-528.7 2829.1,0 5122,1998.3 5122,4462.8 0,1533.9 -887.7,2886 -2239.8,3689.8 335.7,594 525,1262.5 525,1969.3 0,2464.6 -2292.9,4462.8 -5121.1,4462.8 -2829.11,0 -5122.04,-1998.2 -5122.04,-4462.8 0,-432.6 70.87,-850.4 202.34,-1245.7 v 0"
         style="fill:#c7e9f4;fill-opacity:1;fill-rule:evenodd;stroke:none"
         id="path20" /><path
         d="m 11791.7,7093.5 -337.5,-29.8 c -60.6,-153 -676.1,-74.6 -534.3,-291.9 86.7,-19.6 599.6,-25.2 936.2,-14 65.2,89.5 3.7,255.5 -64.4,335.7 v 0"
         style="fill:#336699;fill-opacity:1;fill-rule:evenodd;stroke:none"
         id="path22" /><path
         d="m 11791.7,7093.5 -337.5,-29.8 c -60.6,-153 -676.1,-74.6 -534.3,-291.9 86.7,-19.6 599.6,-25.2 936.2,-14 65.2,89.5 3.7,255.5 -64.4,335.7 z"
         style="fill:none;stroke:#336699;stroke-width:5.66929;stroke-linecap:butt;stroke-linejoin:miter;stroke-miterlimit:10;stroke-dasharray:none;stroke-opacity:1"
         id="path24" /><path
         d="m 12604.8,7102.8 -336.6,-29.8 c -61.5,-152.9 -676,-74.6 -534.3,-291.9 85.8,-19.6 599.6,-25.2 936.2,-14 65.3,89.6 3.7,255.5 -65.3,335.7 v 0"
         style="fill:#003399;fill-opacity:1;fill-rule:evenodd;stroke:none"
         id="path26" /><path
         d="m 12604.8,7102.8 -336.6,-29.8 c -61.5,-152.9 -676,-74.6 -534.3,-291.9 85.8,-19.6 599.6,-25.2 936.2,-14 65.3,89.6 3.7,255.5 -65.3,335.7 z"
         style="fill:none;stroke:#003399;stroke-width:5.66929;stroke-linecap:butt;stroke-linejoin:miter;stroke-miterlimit:10;stroke-dasharray:none;stroke-opacity:1"
         id="path28" /><path
         d="m 12350.3,12089.7 -385.1,111.9 c -87.7,-158.6 -230.3,-600.6 -262.1,-887.7 -26.1,-135.3 108.2,-676.1 187.5,-1031.4 l 520.3,835.5 -60.6,971.7"
         style="fill:#22adc4;fill-opacity:1;fill-rule:evenodd;stroke:none"
         id="path30" /><path
         d="m 12350.3,12089.7 -385.1,111.9 c -87.7,-158.6 -230.3,-600.6 -262.1,-887.7 -26.1,-135.3 108.2,-676.1 187.5,-1031.4 l 520.3,835.5 z"
         style="fill:none;stroke:#54c6df;stroke-width:5.66929;stroke-linecap:butt;stroke-linejoin:miter;stroke-miterlimit:10;stroke-dasharray:none;stroke-opacity:1"
         id="path32" /><path
         d="m 12385.7,10825.2 -569.7,-153.8 c -111.9,-415.9 -594,-1383.8 -594,-1647.7 l 211.7,-1973.1 c 138.9,-0.9 276,-7.5 414.9,-8.4 l 25.2,1884.5 248,585.6 135.2,-2450.5 c 133.4,-8.4 266.7,-17.7 399.1,-26.1 41.1,1139.5 82.1,2278.9 123.1,3417.5 l -393.5,372"
         style="fill:#153663;fill-opacity:1;fill-rule:evenodd;stroke:none"
         id="path34" /><path
         d="m 12548,12494.4 -288.2,1.8 c -105.3,-7.4 -233.1,-68.1 -294.6,-294.6 l -156.7,-1553.5 c 190.2,-273.2 544.6,-279.8 970.7,-207 63.4,560.4 121.2,1204.7 185.6,1765.1 -35.5,189.3 -164.1,298.4 -416.8,288.2 v 0"
         style="fill:#54c6df;fill-opacity:1;fill-rule:evenodd;stroke:none"
         id="path36" /><path
         d="m 12633.8,12849.6 -326.4,-115.6 c -4.7,-96.1 -8.4,-193 -13.1,-289.1 44.8,-188.3 221,-81.1 310.5,-14 l 29,418.7"
         style="fill:#ff9966;fill-opacity:1;fill-rule:evenodd;stroke:none"
         id="path38" /><path
         d="m 12633.8,12849.6 -326.4,-115.6 c -4.7,-96.1 -8.4,-193 -13.1,-289.1 44.8,-188.3 221,-81.1 310.5,-14 z"
         style="fill:none;stroke:#ff9966;stroke-width:5.66929;stroke-linecap:butt;stroke-linejoin:miter;stroke-miterlimit:10;stroke-dasharray:none;stroke-opacity:1"
         id="path40" /><path
         d="m 12757.8,13383.9 c 1.8,-37.3 0.9,-74.6 -1,-113.7 -21.4,-415 -216.3,-742.3 -434.5,-731.1 -219.1,12.1 -378.6,357.1 -357.1,772.1 1.8,39.2 5.6,76.5 10.2,113.7 l 782.4,-41"
         style="fill:#ffab81;fill-opacity:1;fill-rule:evenodd;stroke:none"
         id="path42" /><path
         d="m 12757.8,13383.9 c 1.8,-37.3 0.9,-74.6 -1,-113.7 -21.4,-415 -216.3,-742.3 -434.5,-731.1 -219.1,12.1 -378.6,357.1 -357.1,772.1 1.8,39.2 5.6,76.5 10.2,113.7 z"
         style="fill:none;stroke:#ffab81;stroke-width:5.66929;stroke-linecap:butt;stroke-linejoin:miter;stroke-miterlimit:10;stroke-dasharray:none;stroke-opacity:1"
         id="path44" /><path
         d="m 12568.5,13287.9 c -82.1,67.1 -399.1,53.1 -598.7,80.2 -126.8,66.2 -277.8,195.8 -226.6,377.6 106.3,249 402.9,-70.8 593.1,-54.1 204.2,99.8 414,-117.5 448.5,-166.9 121.2,-195.8 -0.9,-407.5 -84.8,-586.5 -123.1,95.1 -35.5,278.8 -131.5,349.7 v 0"
         style="fill:#131943;fill-opacity:1;fill-rule:evenodd;stroke:none"
         id="path46" /><path
         d="m 12568.5,13287.9 c -82.1,67.1 -399.1,53.1 -598.7,80.2 -126.8,66.2 -277.8,195.8 -226.6,377.6 106.3,249 402.9,-70.8 593.1,-54.1 204.2,99.8 414,-117.5 448.5,-166.9 121.2,-195.8 -0.9,-407.5 -84.8,-586.5 -123.1,95.1 -35.5,278.8 -131.5,349.7 z"
         style="fill:none;stroke:#131943;stroke-width:5.66929;stroke-linecap:butt;stroke-linejoin:miter;stroke-miterlimit:10;stroke-dasharray:none;stroke-opacity:1"
         id="path48" /><path
         d="m 11005.7,11340.9 -61.6,-65.3 c -52.2,-46.6 -116.5,-161.3 -155.7,-138 -25.2,17.7 42,77.4 30.8,119.4 -57.8,65.2 -259.3,-76.5 -302.1,-19.6 -66.3,83 -34.5,219.1 62.4,248 51.3,19.6 209.8,-28.9 357.2,-43.8 l 69,-100.7"
         style="fill:#ff9966;fill-opacity:1;fill-rule:evenodd;stroke:none"
         id="path50" /><path
         d="m 11005.7,11340.9 -61.6,-65.3 c -52.2,-46.6 -116.5,-161.3 -155.7,-138 -25.2,17.7 42,77.4 30.8,119.4 -57.8,65.2 -259.3,-76.5 -302.1,-19.6 -66.3,83 -34.5,219.1 62.4,248 51.3,19.6 209.8,-28.9 357.2,-43.8 z"
         style="fill:none;stroke:#ff9966;stroke-width:19.2756;stroke-linecap:butt;stroke-linejoin:miter;stroke-miterlimit:10;stroke-dasharray:none;stroke-opacity:1"
         id="path52" /><path
         d="m 10869.5,11441.6 62.5,-154.8 256.4,-14.9 14,185.5 -332.9,-15.8"
         style="fill:#ff9966;fill-opacity:1;fill-rule:evenodd;stroke:none"
         id="path54" /><path
         d="m 10869.5,11441.6 62.5,-154.8 256.4,-14.9 14,185.5 z"
         style="fill:none;stroke:#ff9966;stroke-width:5.66929;stroke-linecap:butt;stroke-linejoin:miter;stroke-miterlimit:10;stroke-dasharray:none;stroke-opacity:1"
         id="path56" /><path
         d="m 12559.2,12188.5 c 33.5,177.2 410.2,216.3 410.2,-5.6 5.6,-311.4 -83,-781.4 -216.3,-949.2 -196.7,-112.9 -973.5,-55.1 -1741.8,0 1.8,77.4 3.7,155.7 5.6,233.1 l 1462.1,98.8 80.2,622.9"
         style="fill:#22adc4;fill-opacity:1;fill-rule:evenodd;stroke:none"
         id="path58" /><path
         d="m 12559.2,12188.5 c 33.5,177.2 410.2,216.3 410.2,-5.6 5.6,-311.4 -83,-781.4 -216.3,-949.2 -196.7,-112.9 -973.5,-55.1 -1741.8,0 1.8,77.4 3.7,155.7 5.6,233.1 l 1462.1,98.8 z"
         style="fill:none;stroke:#54c6df;stroke-width:5.66929;stroke-linecap:butt;stroke-linejoin:miter;stroke-miterlimit:10;stroke-dasharray:none;stroke-opacity:1"
         id="path60" /><path
         d="m 9132.34,7112.2 339.42,-29.9 c 61.54,-153.8 681.64,-75.5 538.04,-293.7 -86.73,-19.6 -603.32,-25.2 -942.73,-14.9 -65.28,91.3 -3.73,258.3 65.27,338.5 v 0"
         style="fill:#336699;fill-opacity:1;fill-rule:evenodd;stroke:none"
         id="path62" /><path
         d="m 9132.34,7112.2 339.42,-29.9 c 61.54,-153.8 681.64,-75.5 538.04,-293.7 -86.73,-19.6 -603.32,-25.2 -942.73,-14.9 -65.28,91.3 -3.73,258.3 65.27,338.5 z"
         style="fill:none;stroke:#336699;stroke-width:5.66929;stroke-linecap:butt;stroke-linejoin:miter;stroke-miterlimit:10;stroke-dasharray:none;stroke-opacity:1"
         id="path64" /><path
         d="m 8315.5,7112.2 339.42,-29.9 c 61.54,-153.8 680.7,-75.5 537.1,-293.7 -86.72,-19.6 -603.31,-25.2 -942.73,-14.9 -65.27,91.3 -3.73,258.3 66.21,338.5 v 0"
         style="fill:#003399;fill-opacity:1;fill-rule:evenodd;stroke:none"
         id="path66" /><path
         d="m 8315.5,7112.2 339.42,-29.9 c 61.54,-153.8 680.7,-75.5 537.1,-293.7 -86.72,-19.6 -603.31,-25.2 -942.73,-14.9 -65.27,91.3 -3.73,258.3 66.21,338.5 z"
         style="fill:none;stroke:#003399;stroke-width:5.66929;stroke-linecap:butt;stroke-linejoin:miter;stroke-miterlimit:10;stroke-dasharray:none;stroke-opacity:1"
         id="path68" /><path
         d="m 8934.66,12101.8 387.9,112.8 c 87.65,-160.4 232.19,-605.2 263.89,-894.2 26.11,-136.2 -109.1,-680.7 -188.36,-1038.8 l -524.98,842 61.55,978.2"
         style="fill:#000066;fill-opacity:1;fill-rule:evenodd;stroke:none"
         id="path70" /><path
         d="m 8934.66,12101.8 387.9,112.8 c 87.65,-160.4 232.19,-605.2 263.89,-894.2 26.11,-136.2 -109.1,-680.7 -188.36,-1038.8 l -524.98,842 z"
         style="fill:none;stroke:#000066;stroke-width:5.66929;stroke-linecap:butt;stroke-linejoin:miter;stroke-miterlimit:10;stroke-dasharray:none;stroke-opacity:1"
         id="path72" /><path
         d="m 8873.11,11123.6 607.04,-473.7 120.29,-1339 -102.57,-2240.7 -401.9,-5.6 -104.43,2246.3 -313.31,-2231.4 -391.64,7.5 216.33,3354.1 370.19,682.5"
         style="fill:#131943;fill-opacity:1;fill-rule:evenodd;stroke:none"
         id="path74" /><path
         d="m 8735.11,12509.3 290,1.8 c 107.23,-7.4 234.98,-69 297.45,-296.5 l 157.59,-1564.7 c -191.16,-275 -548.29,-282.5 -977.23,-208.8 -64.33,564.1 -123.08,1213.1 -186.49,1777.2 35.44,191.2 164.12,301.2 418.68,291 v 0"
         style="fill:#003399;fill-opacity:1;fill-rule:evenodd;stroke:none"
         id="path76" /><path
         d="m 8735.11,12509.3 290,1.8 c 107.23,-7.4 234.98,-69 297.45,-296.5 l 157.59,-1564.7 c -191.16,-275 -548.29,-282.5 -977.23,-208.8 -64.33,564.1 -123.08,1213.1 -186.49,1777.2 35.44,191.2 164.12,301.2 418.68,291 z"
         style="fill:none;stroke:#003399;stroke-width:5.66929;stroke-linecap:butt;stroke-linejoin:miter;stroke-miterlimit:10;stroke-dasharray:none;stroke-opacity:1"
         id="path78" /><path
         d="m 10325.9,11336.2 57.8,-69.9 c 49.4,-49.4 108.2,-169.7 148.3,-148.3 26.1,16.8 -37.3,81.1 -23.3,122.2 62.4,62.5 256.4,-93.3 303,-38.3 70.9,79.3 47.6,218.3 -48.5,253.7 -50.3,22.4 -212.6,-16.8 -361.8,-22.4 l -75.5,-97"
         style="fill:#ff9966;fill-opacity:1;fill-rule:evenodd;stroke:none"
         id="path80" /><path
         d="m 10325.9,11336.2 57.8,-69.9 c 49.4,-49.4 108.2,-169.7 148.3,-148.3 26.1,16.8 -37.3,81.1 -23.3,122.2 62.4,62.5 256.4,-93.3 303,-38.3 70.9,79.3 47.6,218.3 -48.5,253.7 -50.3,22.4 -212.6,-16.8 -361.8,-22.4 z"
         style="fill:none;stroke:#ff9966;stroke-width:19.2756;stroke-linecap:butt;stroke-linejoin:miter;stroke-miterlimit:10;stroke-dasharray:none;stroke-opacity:1"
         id="path82" /><path
         d="m 10469.5,11429.5 -72.7,-152 h -259.3 l -1.8,188.3 333.8,-36.3"
         style="fill:#ff9966;fill-opacity:1;fill-rule:evenodd;stroke:none"
         id="path84" /><path
         d="m 10469.5,11429.5 -72.7,-152 h -259.3 l -1.8,188.3 z"
         style="fill:none;stroke:#ff9966;stroke-width:5.66929;stroke-linecap:butt;stroke-linejoin:miter;stroke-miterlimit:10;stroke-dasharray:none;stroke-opacity:1"
         id="path86" /><path
         d="m 8723.92,12200.6 c -33.57,179.1 -413.08,218.2 -413.08,-5.6 -5.6,-313.3 83.92,-787 217.26,-955.7 198.62,-113.8 980.96,-55.1 1754.9,0 -1.9,78.3 -3.7,156.6 -5.6,234.9 l -1472.36,99.8 -81.12,626.6"
         style="fill:#000066;fill-opacity:1;fill-rule:evenodd;stroke:none"
         id="path88" /><path
         d="m 8723.92,12200.6 c -33.57,179.1 -413.08,218.2 -413.08,-5.6 -5.6,-313.3 83.92,-787 217.26,-955.7 198.62,-113.8 980.96,-55.1 1754.9,0 -1.9,78.3 -3.7,156.6 -5.6,234.9 l -1472.36,99.8 z"
         style="fill:none;stroke:#000066;stroke-width:5.66929;stroke-linecap:butt;stroke-linejoin:miter;stroke-miterlimit:10;stroke-dasharray:none;stroke-opacity:1"
         id="path90" /><path
         d="m 8618.55,12969 349.68,-159.5 11.19,-470.9 c -36.37,-39.1 -243.38,56 -328.23,162.3 l -32.64,468.1"
         style="fill:#ff9966;fill-opacity:1;fill-rule:evenodd;stroke:none"
         id="path92" /><path
         d="m 8618.55,12969 349.68,-159.5 11.19,-470.9 c -36.37,-39.1 -243.38,56 -328.23,162.3 z"
         style="fill:none;stroke:#ff9966;stroke-width:4.8189;stroke-linecap:butt;stroke-linejoin:miter;stroke-miterlimit:10;stroke-dasharray:none;stroke-opacity:1"
         id="path94" /><path
         d="m 8494.53,13233.8 c 250.84,29.8 453.18,173.4 722.66,163.2 13.99,-96.1 33.57,-203.3 44.76,-309.6 49.42,-77.4 133.35,-133.3 114.7,-193 -21.45,-27.1 -69.01,-16.8 -107.24,-19.6 -10.25,-167.9 -70.87,-305.9 -246.17,-348.7 -356.2,-29.9 -538.03,391.6 -528.71,707.7 v 0"
         style="fill:#ffab81;fill-opacity:1;fill-rule:evenodd;stroke:none"
         id="path96" /><path
         d="m 8494.53,13233.8 c 250.84,29.8 453.18,173.4 722.66,163.2 13.99,-96.1 33.57,-203.3 44.76,-309.6 49.42,-77.4 133.35,-133.3 114.7,-193 -21.45,-27.1 -69.01,-16.8 -107.24,-19.6 -10.25,-167.9 -70.87,-305.9 -246.17,-348.7 -356.2,-29.9 -538.03,391.6 -528.71,707.7 z"
         style="fill:none;stroke:#ffab81;stroke-width:4.8189;stroke-linecap:butt;stroke-linejoin:miter;stroke-miterlimit:10;stroke-dasharray:none;stroke-opacity:1"
         id="path98" /><path
         d="m 9229.32,13322.4 c -15.86,-44.8 -280.68,43.8 -404.69,3.7 -113.77,-27 -54.09,-274.1 -124.95,-303 -56.89,-15 -62.48,114.7 -133.35,73.6 -25.17,-20.5 56.88,-166.9 -16.78,-197.7 -143.6,300.3 -138.94,476.5 161.31,638.8 193.03,81.1 595.85,134.3 518.46,-215.4 v 0"
         style="fill:#131943;fill-opacity:1;fill-rule:evenodd;stroke:none"
         id="path100" /><path
         d="m 9229.32,13322.4 c -15.86,-44.8 -280.68,43.8 -404.69,3.7 -113.77,-27 -54.09,-274.1 -124.95,-303 -56.89,-15 -62.48,114.7 -133.35,73.6 -25.17,-20.5 56.88,-166.9 -16.78,-197.7 -143.6,300.3 -138.94,476.5 161.31,638.8 193.03,81.1 595.85,134.3 518.46,-215.4 z"
         style="fill:none;stroke:#131943;stroke-width:4.8189;stroke-linecap:butt;stroke-linejoin:miter;stroke-miterlimit:10;stroke-dasharray:none;stroke-opacity:1"
         id="path102" /><path
         d="m 10649.5,11111.5 c 100.7,0 182.7,52.2 182.7,116.6 0,63.4 -82,115.6 -182.7,115.6 -99.8,0 -181.9,-52.2 -181.9,-115.6 0,-64.4 82.1,-116.6 181.9,-116.6 v 0"
         style="fill:#ff9966;fill-opacity:1;fill-rule:evenodd;stroke:none"
         id="path104" /><path
         d="m 10649.5,11111.5 c 100.7,0 182.7,52.2 182.7,116.6 0,63.4 -82,115.6 -182.7,115.6 -99.8,0 -181.9,-52.2 -181.9,-115.6 0,-64.4 82.1,-116.6 181.9,-116.6 z"
         style="fill:none;stroke:#ff9966;stroke-width:5.66929;stroke-linecap:butt;stroke-linejoin:miter;stroke-miterlimit:10;stroke-dasharray:none;stroke-opacity:1"
         id="path106" /><path
         d="m 3905.87,8158.4 -173.44,66.2 28.9,224.7 148.27,-16.8 -3.73,-274.1"
         style="fill:#ff9966;fill-opacity:1;fill-rule:evenodd;stroke:none"
         id="path108" /><path
         d="m 3905.87,8158.4 -173.44,66.2 28.9,224.7 148.27,-16.8 z"
         style="fill:none;stroke:#ff9966;stroke-width:5.66929;stroke-linecap:butt;stroke-linejoin:miter;stroke-miterlimit:10;stroke-dasharray:none;stroke-opacity:1"
         id="path110" /><path
         d="m 3780.91,8361.7 -40.09,75.5 c -24.25,61.5 -106.3,155.7 -72.73,182.7 23.31,16.8 55.01,-62.4 96.04,-65.2 77.39,30.7 13.99,255.5 78.33,276 95.11,32.6 206.07,-38.2 201.41,-135.2 0.93,-51.3 -92.31,-177.2 -151.99,-304 l -110.97,-29.8"
         style="fill:#ff9966;fill-opacity:1;fill-rule:evenodd;stroke:none"
         id="path112" /><path
         d="m 3780.91,8361.7 -40.09,75.5 c -24.25,61.5 -106.3,155.7 -72.73,182.7 23.31,16.8 55.01,-62.4 96.04,-65.2 77.39,30.7 13.99,255.5 78.33,276 95.11,32.6 206.07,-38.2 201.41,-135.2 0.93,-51.3 -92.31,-177.2 -151.99,-304 z"
         style="fill:none;stroke:#ff9966;stroke-width:19.2756;stroke-linecap:butt;stroke-linejoin:miter;stroke-miterlimit:10;stroke-dasharray:none;stroke-opacity:1"
         id="path114" /><path
         d="m 3270.86,7220.3 -275.08,290.9 612.63,291.9 c 31.7,182.8 63.41,364.6 95.11,547.4 134.28,55 176.24,-10.3 263.89,-15 16.78,-290.9 -66.21,-463.4 -107.24,-652.7 -95.11,-224.7 -348.74,-329.1 -589.31,-462.5 v 0"
         style="fill:#4747ff;fill-opacity:1;fill-rule:evenodd;stroke:none"
         id="path116" /><path
         d="m 3270.86,7220.3 -275.08,290.9 612.63,291.9 c 31.7,182.8 63.41,364.6 95.11,547.4 134.28,55 176.24,-10.3 263.89,-15 16.78,-290.9 -66.21,-463.4 -107.24,-652.7 -95.11,-224.7 -348.74,-329.1 -589.31,-462.5 z"
         style="fill:none;stroke:#4747ff;stroke-width:5.66929;stroke-linecap:butt;stroke-linejoin:miter;stroke-miterlimit:10;stroke-dasharray:none;stroke-opacity:1"
         id="path118" /><path
         d="M 5773.6,9489 3526.35,8604.1 c -89.52,-33.6 -61.54,-138.9 46.62,-113.8 L 5909.74,8949.1 5773.6,9489"
         style="fill:#9999ff;fill-opacity:1;fill-rule:evenodd;stroke:none"
         id="path120" /><path
         d="M 5773.6,9489 3526.35,8604.1 c -89.52,-33.6 -61.54,-138.9 46.62,-113.8 l 2336.77,458.8 z"
         style="fill:none;stroke:#9999ff;stroke-width:5.66929;stroke-linecap:butt;stroke-linejoin:miter;stroke-miterlimit:10;stroke-dasharray:none;stroke-opacity:1"
         id="path122" /><path
         d="m 5773.6,9489 c -62.48,-16.8 -79.26,-151.1 -37.3,-299.3 41.96,-148.3 126.81,-253.6 189.29,-235.9 62.47,17.7 79.26,152 37.3,300.2 -41.96,147.4 -126.82,252.7 -189.29,235 v 0"
         style="fill:#2d4da0;fill-opacity:1;fill-rule:evenodd;stroke:none"
         id="path124" /><path
         d="m 5773.6,9489 c -62.48,-16.8 -79.26,-151.1 -37.3,-299.3 41.96,-148.3 126.81,-253.6 189.29,-235.9 62.47,17.7 79.26,152 37.3,300.2 -41.96,147.4 -126.82,252.7 -189.29,235 z"
         style="fill:none;stroke:#2d4da0;stroke-width:5.66929;stroke-linecap:butt;stroke-linejoin:miter;stroke-miterlimit:10;stroke-dasharray:none;stroke-opacity:1"
         id="path126" /><path
         d="m 5828.61,9415.3 c -42.89,-12.1 -55.01,-105.3 -26.11,-207 28.91,-101.6 87.65,-175.3 130.55,-162.2 42.89,12.1 55.01,104.4 26.11,206.1 -28.91,102.5 -87.66,175.3 -130.55,163.1 v 0"
         style="fill:#2b2d7a;fill-opacity:1;fill-rule:evenodd;stroke:none"
         id="path128" /><path
         d="m 5828.61,9415.3 c -42.89,-12.1 -55.01,-105.3 -26.11,-207 28.91,-101.6 87.65,-175.3 130.55,-162.2 42.89,12.1 55.01,104.4 26.11,206.1 -28.91,102.5 -87.66,175.3 -130.55,163.1 z"
         style="fill:none;stroke:#2b2d7a;stroke-width:5.66929;stroke-linecap:butt;stroke-linejoin:miter;stroke-miterlimit:10;stroke-dasharray:none;stroke-opacity:1"
         id="path130" /><path
         d="m 4437.37,8172.4 -171.57,107.2 78.32,235 154.79,-48.5 -61.54,-293.7"
         style="fill:#ff9966;fill-opacity:1;fill-rule:evenodd;stroke:none"
         id="path132" /><path
         d="m 4437.37,8172.4 -171.57,107.2 78.32,235 154.79,-48.5 z"
         style="fill:none;stroke:#ff9966;stroke-width:5.66929;stroke-linecap:butt;stroke-linejoin:miter;stroke-miterlimit:10;stroke-dasharray:none;stroke-opacity:1"
         id="path134" /><path
         d="m 4345.99,8416.7 -26.11,89.5 c -13.99,70.9 -82.99,189.3 -41.03,211.7 28.91,13 46.63,-78.4 90.45,-89.6 88.59,16.8 68.07,270.5 140.8,278.8 109.1,15 213.54,-83.9 188.36,-186.4 -9.32,-55.1 -136.14,-171.6 -226.59,-294.7 l -125.88,-9.3"
         style="fill:#ff9966;fill-opacity:1;fill-rule:evenodd;stroke:none"
         id="path136" /><path
         d="m 4345.99,8416.7 -26.11,89.5 c -13.99,70.9 -82.99,189.3 -41.03,211.7 28.91,13 46.63,-78.4 90.45,-89.6 88.59,16.8 68.07,270.5 140.8,278.8 109.1,15 213.54,-83.9 188.36,-186.4 -9.32,-55.1 -136.14,-171.6 -226.59,-294.7 z"
         style="fill:none;stroke:#ff9966;stroke-width:19.2756;stroke-linecap:butt;stroke-linejoin:miter;stroke-miterlimit:10;stroke-dasharray:none;stroke-opacity:1"
         id="path138" /><path
         d="m 2698.32,3005.6 180.9,-132.4 c 64.34,-206.1 189.29,-334.8 292.79,-498 l -508.19,220.1 34.5,410.3"
         style="fill:#ff9966;fill-opacity:1;fill-rule:evenodd;stroke:none"
         id="path140" /><path
         d="m 2698.32,3005.6 180.9,-132.4 c 64.34,-206.1 189.29,-334.8 292.79,-498 l -508.19,220.1 z"
         style="fill:none;stroke:#ff9966;stroke-width:4.8189;stroke-linecap:butt;stroke-linejoin:miter;stroke-miterlimit:10;stroke-dasharray:none;stroke-opacity:1"
         id="path142" /><path
         d="m 2903.46,3301.2 -282.53,15.8 46.62,-451.3 c 19.58,-51.3 207.94,-82.1 211.67,7.5 l 24.24,428"
         style="fill:#ff9966;fill-opacity:1;fill-rule:evenodd;stroke:none"
         id="path144" /><path
         d="m 2903.46,3301.2 -282.53,15.8 46.62,-451.3 c 19.58,-51.3 207.94,-82.1 211.67,7.5 z"
         style="fill:none;stroke:#ff9966;stroke-width:4.8189;stroke-linecap:butt;stroke-linejoin:miter;stroke-miterlimit:10;stroke-dasharray:none;stroke-opacity:1"
         id="path146" /><path
         d="m 3648.5,2255.9 c 176.24,144.5 -510.05,-6.6 -941.79,583.7 -18.65,28.9 -39.16,26.1 -40.09,0.9 -51.29,-220 -20.52,-423.3 -30.77,-635 l 41.02,-4.6 c 13.06,105.3 26.11,209.8 39.17,315.1 53.15,-120.3 285.33,-264.8 381.38,-270.4 85.78,-13 335.68,6.5 551.08,10.3 v 0"
         style="fill:#131943;fill-opacity:1;fill-rule:evenodd;stroke:none"
         id="path148" /><path
         d="m 3648.5,2255.9 c 176.24,144.5 -510.05,-6.6 -941.79,583.7 -18.65,28.9 -39.16,26.1 -40.09,0.9 -51.29,-220 -20.52,-423.3 -30.77,-635 l 41.02,-4.6 c 13.06,105.3 26.11,209.8 39.17,315.1 53.15,-120.3 285.33,-264.8 381.38,-270.4 85.78,-13 335.68,6.5 551.08,10.3 z"
         style="fill:none;stroke:#131943;stroke-width:4.8189;stroke-linecap:butt;stroke-linejoin:miter;stroke-miterlimit:10;stroke-dasharray:none;stroke-opacity:1"
         id="path150" /><path
         d="m 3542.2,2961.7 180.9,-132.4 c 63.41,-206 189.29,-334.7 292.8,-497.9 l -508.2,220.1 34.5,410.2"
         style="fill:#ff9966;fill-opacity:1;fill-rule:evenodd;stroke:none"
         id="path152" /><path
         d="m 3542.2,2961.7 180.9,-132.4 c 63.41,-206 189.29,-334.7 292.8,-497.9 l -508.2,220.1 z"
         style="fill:none;stroke:#ff9966;stroke-width:4.8189;stroke-linecap:butt;stroke-linejoin:miter;stroke-miterlimit:10;stroke-dasharray:none;stroke-opacity:1"
         id="path154" /><path
         d="m 3746.41,3257.3 -281.6,16.8 46.62,-452.2 c 19.58,-51.3 207.94,-82.1 211.67,7.4 l 23.31,428"
         style="fill:#ff9966;fill-opacity:1;fill-rule:evenodd;stroke:none"
         id="path156" /><path
         d="m 3746.41,3257.3 -281.6,16.8 46.62,-452.2 c 19.58,-51.3 207.94,-82.1 211.67,7.4 z"
         style="fill:none;stroke:#ff9966;stroke-width:4.8189;stroke-linecap:butt;stroke-linejoin:miter;stroke-miterlimit:10;stroke-dasharray:none;stroke-opacity:1"
         id="path158" /><path
         d="m 4492.39,2212 c 176.23,145.5 -510.06,-6.5 -941.79,583.8 -18.65,29.8 -39.17,26.1 -41.03,0.9 -50.36,-220.1 -19.58,-423.3 -29.84,-635 l 41.03,-4.7 c 13.05,105.4 26.11,210.8 38.23,315.2 54.08,-119.4 286.26,-264.8 381.38,-269.5 85.78,-14 335.68,5.6 552.02,9.3 v 0"
         style="fill:#131943;fill-opacity:1;fill-rule:evenodd;stroke:none"
         id="path160" /><path
         d="m 4492.39,2212 c 176.23,145.5 -510.06,-6.5 -941.79,583.8 -18.65,29.8 -39.17,26.1 -41.03,0.9 -50.36,-220.1 -19.58,-423.3 -29.84,-635 l 41.03,-4.7 c 13.05,105.4 26.11,210.8 38.23,315.2 54.08,-119.4 286.26,-264.8 381.38,-269.5 85.78,-14 335.68,5.6 552.02,9.3 z"
         style="fill:none;stroke:#131943;stroke-width:4.8189;stroke-linecap:butt;stroke-linejoin:miter;stroke-miterlimit:10;stroke-dasharray:none;stroke-opacity:1"
         id="path162" /><path
         d="M 2925.84,6819.4 3777.19,6024 c 91.38,-418.7 203.27,-838.3 192.08,-1100.3 L 3779.98,3140.8 c -136.14,5.6 -272.28,11.2 -409.35,16.8 l -19.58,1702.6 -197.69,611.7 -251.76,-2327.4 -424.27,1.9 74.59,2791.8 373.92,881.2"
         style="fill:#131943;fill-opacity:1;fill-rule:evenodd;stroke:none"
         id="path164" /><path
         d="M 2925.84,6819.4 3777.19,6024 c 91.38,-418.7 203.27,-838.3 192.08,-1100.3 L 3779.98,3140.8 c -136.14,5.6 -272.28,11.2 -409.35,16.8 l -19.58,1702.6 -197.69,611.7 -251.76,-2327.4 -424.27,1.9 74.59,2791.8 z"
         style="fill:none;stroke:#131943;stroke-width:4.8189;stroke-linecap:butt;stroke-linejoin:miter;stroke-miterlimit:10;stroke-dasharray:none;stroke-opacity:1"
         id="path166" /><path
         d="m 2651.7,7954.2 c 171.57,103.5 342.21,206 512.85,308.6 160.39,-56.9 417.75,-92.3 480.22,-170.6 280.68,-302.1 198.62,-524.1 622.89,340.3 101.64,-14 151.99,-46.6 231.25,-132.4 -128.68,-263.9 -170.64,-1091.9 -867.19,-937.1 41.96,-552 186.49,-987.5 229.39,-1539.5 -321.7,-322.7 -1121.76,-192.1 -1353.01,-63.4 -40.1,745 38.23,1948.8 143.6,2194.1 v 0"
         style="fill:#6666ff;fill-opacity:1;fill-rule:evenodd;stroke:none"
         id="path168" /><path
         d="m 2651.7,7954.2 c 171.57,103.5 342.21,206 512.85,308.6 160.39,-56.9 417.75,-92.3 480.22,-170.6 280.68,-302.1 198.62,-524.1 622.89,340.3 101.64,-14 151.99,-46.6 231.25,-132.4 -128.68,-263.9 -170.64,-1091.9 -867.19,-937.1 41.96,-552 186.49,-987.5 229.39,-1539.5 -321.7,-322.7 -1121.76,-192.1 -1353.01,-63.4 -40.1,745 38.23,1948.8 143.6,2194.1 z"
         style="fill:none;stroke:#6666ff;stroke-width:4.8189;stroke-linecap:butt;stroke-linejoin:miter;stroke-miterlimit:10;stroke-dasharray:none;stroke-opacity:1"
         id="path170" /><path
         d="m 2623.72,8825.1 570.67,216.3 c 124.02,-345.9 195.82,-725.4 -41.03,-798.2 -261.09,-82 -439.19,267.7 -529.64,581.9 v 0"
         style="fill:#ff9966;fill-opacity:1;fill-rule:evenodd;stroke:none"
         id="path172" /><path
         d="m 2623.72,8825.1 570.67,216.3 c 124.02,-345.9 195.82,-725.4 -41.03,-798.2 -261.09,-82 -439.19,267.7 -529.64,581.9 z"
         style="fill:none;stroke:#ff9966;stroke-width:4.8189;stroke-linecap:butt;stroke-linejoin:miter;stroke-miterlimit:10;stroke-dasharray:none;stroke-opacity:1"
         id="path174" /><path
         d="m 3131.92,8809.2 c 97.91,55.1 147.33,89.6 157.58,192.1 18.65,194 -167.84,252.7 -324.49,203.3 -47.56,-14.9 -116.56,-20.5 -199.55,-49.4 -232.19,-80.2 -268.55,-364.6 -170.64,-539 106.3,-191.1 144.53,-164.1 121.22,-394.4 -24.25,-227.5 -265.75,-459.7 137.07,-620.1 344.08,-137.1 731.05,204.2 433.6,622.9 -106.3,149.2 -392.57,326.3 -252.7,508.2 13.05,15.8 95.11,75.5 97.91,76.4 v 0"
         style="fill:#131943;fill-opacity:1;fill-rule:evenodd;stroke:none"
         id="path176" /><path
         d="m 3131.92,8809.2 c 97.91,55.1 147.33,89.6 157.58,192.1 18.65,194 -167.84,252.7 -324.49,203.3 -47.56,-14.9 -116.56,-20.5 -199.55,-49.4 -232.19,-80.2 -268.55,-364.6 -170.64,-539 106.3,-191.1 144.53,-164.1 121.22,-394.4 -24.25,-227.5 -265.75,-459.7 137.07,-620.1 344.08,-137.1 731.05,204.2 433.6,622.9 -106.3,149.2 -392.57,326.3 -252.7,508.2 13.05,15.8 95.11,75.5 97.91,76.4 z"
         style="fill:none;stroke:#131943;stroke-width:4.8189;stroke-linecap:butt;stroke-linejoin:miter;stroke-miterlimit:10;stroke-dasharray:none;stroke-opacity:1"
         id="path178" /><path
         d="m 3057.32,8529.5 1.87,129.6 c -18.65,41 -68.07,77.4 -106.31,23.3 -35.43,-70.8 69.94,-135.2 104.44,-152.9 v 0"
         style="fill:#ff9966;fill-opacity:1;fill-rule:evenodd;stroke:none"
         id="path180" /><path
         d="m 3057.32,8529.5 1.87,129.6 c -18.65,41 -68.07,77.4 -106.31,23.3 -35.43,-70.8 69.94,-135.2 104.44,-152.9 z"
         style="fill:none;stroke:#ff9966;stroke-width:4.8189;stroke-linecap:butt;stroke-linejoin:miter;stroke-miterlimit:10;stroke-dasharray:none;stroke-opacity:1"
         id="path182" /><path
         d="m 17507.8,2710 -79.3,-176.3 c -176.2,-124.9 -656.5,-263.8 -528.7,-376.7 273.2,56 547.3,111 820.6,166.9 10.2,65.3 -22.4,170.7 -84.9,244.3 l -127.7,141.8"
         style="fill:#153663;fill-opacity:1;fill-rule:evenodd;stroke:none"
         id="path184" /><path
         d="m 17507.8,2710 -79.3,-176.3 c -176.2,-124.9 -656.5,-263.8 -528.7,-376.7 273.2,56 547.3,111 820.6,166.9 10.2,65.3 -22.4,170.7 -84.9,244.3 z"
         style="fill:none;stroke:#153663;stroke-width:4.8189;stroke-linecap:butt;stroke-linejoin:miter;stroke-miterlimit:10;stroke-dasharray:none;stroke-opacity:1"
         id="path186" /><path
         d="m 17320.3,2945.9 271.4,70.9 43.8,-448.6 c -33.6,-32.6 -131.5,-82 -207,-34.5 l -108.2,412.2"
         style="fill:#ff9966;fill-opacity:1;fill-rule:evenodd;stroke:none"
         id="path188" /><path
         d="m 17320.3,2945.9 271.4,70.9 43.8,-448.6 c -33.6,-32.6 -131.5,-82 -207,-34.5 z"
         style="fill:none;stroke:#ff9966;stroke-width:4.8189;stroke-linecap:butt;stroke-linejoin:miter;stroke-miterlimit:10;stroke-dasharray:none;stroke-opacity:1"
         id="path190" /><path
         d="M 16712.4,2702.5 16607,2540.3 c -193,-97.9 -688.2,-163.2 -578.1,-293.8 278.8,14 557.6,28 836.4,42 19.6,63.4 2.8,172.5 -48.5,254.6 l -104.4,159.4"
         style="fill:#153663;fill-opacity:1;fill-rule:evenodd;stroke:none"
         id="path192" /><path
         d="M 16712.4,2702.5 16607,2540.3 c -193,-97.9 -688.2,-163.2 -578.1,-293.8 278.8,14 557.6,28 836.4,42 19.6,63.4 2.8,172.5 -48.5,254.6 z"
         style="fill:none;stroke:#153663;stroke-width:4.8189;stroke-linecap:butt;stroke-linejoin:miter;stroke-miterlimit:10;stroke-dasharray:none;stroke-opacity:1"
         id="path194" /><path
         d="m 16562.2,2963.6 278.8,29.8 -24.2,-450.3 c -37.3,-27.1 -141.7,-60.6 -209.8,-2.8 l -44.8,423.3"
         style="fill:#ff9966;fill-opacity:1;fill-rule:evenodd;stroke:none"
         id="path196" /><path
         d="m 16562.2,2963.6 278.8,29.8 -24.2,-450.3 c -37.3,-27.1 -141.7,-60.6 -209.8,-2.8 z"
         style="fill:none;stroke:#ff9966;stroke-width:4.8189;stroke-linecap:butt;stroke-linejoin:miter;stroke-miterlimit:10;stroke-dasharray:none;stroke-opacity:1"
         id="path198" /><path
         d="m 16996.8,5784.3 -276,-187.4 c -122.2,-383.3 -371.2,-1023.9 -365.6,-1149.7 -5.6,-83 119.4,-1127.4 179.1,-1691.5 l 367.4,5.6 43.8,1661.6 480.2,1295.2 -428.9,66.2"
         style="fill:#153663;fill-opacity:1;fill-rule:evenodd;stroke:none"
         id="path200" /><path
         d="m 16996.8,5784.3 584.6,-189.3 -78.3,-1222.4 155.7,-1550.7 -377.6,-44.8 -270.5,1606.7 -13.9,1400.5"
         style="fill:#153663;fill-opacity:1;fill-rule:evenodd;stroke:none"
         id="path202" /><path
         d="m 16692.8,7046.9 -154.8,308.6 -421.5,-115.6 c -183.7,276.9 -367.4,553 -551.1,829.9 -22.4,74.6 -32.6,194.9 -68,224.7 -82.1,46.6 -291,195.8 -278.9,128.7 1.9,-21.4 127.8,-104.4 156.7,-176.2 -29.8,-56.9 -156.7,-113.8 -88.6,-170.7 l 163.2,-108.1 c 194.9,-342.3 450.4,-1024.8 584.7,-1026.7 80.1,-9.3 438.2,69.9 658.3,105.4 v 0"
         style="fill:#ff9966;fill-opacity:1;fill-rule:evenodd;stroke:none"
         id="path204" /><path
         d="m 16692.8,7046.9 -154.8,308.6 -421.5,-115.6 c -183.7,276.9 -367.4,553 -551.1,829.9 -22.4,74.6 -32.6,194.9 -68,224.7 -82.1,46.6 -291,195.8 -278.9,128.7 1.9,-21.4 127.8,-104.4 156.7,-176.2 -29.8,-56.9 -156.7,-113.8 -88.6,-170.7 l 163.2,-108.1 c 194.9,-342.3 450.4,-1024.8 584.7,-1026.7 80.1,-9.3 438.2,69.9 658.3,105.4 z"
         style="fill:none;stroke:#ff9966;stroke-width:4.8189;stroke-linecap:butt;stroke-linejoin:miter;stroke-miterlimit:10;stroke-dasharray:none;stroke-opacity:1"
         id="path206" /><path
         d="m 17216.8,7552.3 -270.4,-19.6 c -224.7,-35.4 -525.9,-202.4 -615.4,-220.1 -56,-127.7 -4.7,-235.9 59.7,-332.9 85.7,9.4 256.4,31.7 384.1,47.6 l -54,-1454.7 860.6,22.4 -44.7,1248.6 -1.9,130.5 c -64.3,499.8 182.8,469.1 -85.8,535.3 -76.5,17.7 -99.8,23.3 -232.2,42.9 v 0"
         style="fill:#ee3d28;fill-opacity:1;fill-rule:evenodd;stroke:none"
         id="path208" /><path
         d="m 17216.8,7552.3 -270.4,-19.6 c -224.7,-35.4 -525.9,-202.4 -615.4,-220.1 -56,-127.7 -4.7,-235.9 59.7,-332.9 85.7,9.4 256.4,31.7 384.1,47.6 l -54,-1454.7 860.6,22.4 -44.7,1248.6 -1.9,130.5 c -64.3,499.8 182.8,469.1 -85.8,535.3 -76.5,17.7 -99.8,23.3 -232.2,42.9 z"
         style="fill:none;stroke:#ee3d28;stroke-width:4.8189;stroke-linecap:butt;stroke-linejoin:miter;stroke-miterlimit:10;stroke-dasharray:none;stroke-opacity:1"
         id="path210" /><path
         d="m 17475.1,5582 -72.7,-58.8 c -50.4,-51.3 -173.5,-110.9 -152,-152.9 16.8,-26.1 83,39.2 124.9,24.2 64.4,-64.3 -95.1,-262 -40.1,-310.5 82.1,-72.7 223.8,-49.4 261.1,49.5 22.4,51.2 -16.7,217.2 -22.3,371.1 l -98.9,77.4"
         style="fill:#ff9966;fill-opacity:1;fill-rule:evenodd;stroke:none"
         id="path212" /><path
         d="m 17475.1,5582 -72.7,-58.8 c -50.4,-51.3 -173.5,-110.9 -152,-152.9 16.8,-26.1 83,39.2 124.9,24.2 64.4,-64.3 -95.1,-262 -40.1,-310.5 82.1,-72.7 223.8,-49.4 261.1,49.5 22.4,51.2 -16.7,217.2 -22.3,371.1 z"
         style="fill:none;stroke:#ff9966;stroke-width:4.8189;stroke-linecap:butt;stroke-linejoin:miter;stroke-miterlimit:10;stroke-dasharray:none;stroke-opacity:1"
         id="path214" /><path
         d="m 17437.8,6874.4 319.9,-9.4 10.2,-523.1 -212.6,-907.3 -167.8,21.5 110.9,865.3 -60.6,553"
         style="fill:#ff9966;fill-opacity:1;fill-rule:evenodd;stroke:none"
         id="path216" /><path
         d="m 17437.8,6874.4 319.9,-9.4 10.2,-523.1 -212.6,-907.3 -167.8,21.5 110.9,865.3 z"
         style="fill:none;stroke:#ff9966;stroke-width:4.8189;stroke-linecap:butt;stroke-linejoin:miter;stroke-miterlimit:10;stroke-dasharray:none;stroke-opacity:1"
         id="path218" /><path
         d="m 17458.3,7391.9 c 36.4,25.2 51.3,91.4 97,83 164.1,-36.4 204.2,-509.1 203.3,-609.9 -56,-45.6 -245.3,-85.7 -367.4,-20.5 l 67.1,547.4"
         style="fill:#ee3d28;fill-opacity:1;fill-rule:evenodd;stroke:none"
         id="path220" /><path
         d="m 17458.3,7391.9 c 36.4,25.2 51.3,91.4 97,83 164.1,-36.4 204.2,-509.1 203.3,-609.9 -56,-45.6 -245.3,-85.7 -367.4,-20.5 z"
         style="fill:none;stroke:#ee3d28;stroke-width:4.8189;stroke-linecap:butt;stroke-linejoin:miter;stroke-miterlimit:10;stroke-dasharray:none;stroke-opacity:1"
         id="path222" /><path
         d="m 17284,7887 -289.1,-78.3 c 0,-97.9 -0.9,-195.8 -0.9,-293.7 61.5,-253.7 238.7,-38.3 276,-1 l 14,373"
         style="fill:#ff9966;fill-opacity:1;fill-rule:evenodd;stroke:none"
         id="path224" /><path
         d="m 17284,7887 -289.1,-78.3 c 0,-97.9 -0.9,-195.8 -0.9,-293.7 61.5,-253.7 238.7,-38.3 276,-1 z"
         style="fill:none;stroke:#ff9966;stroke-width:4.8189;stroke-linecap:butt;stroke-linejoin:miter;stroke-miterlimit:10;stroke-dasharray:none;stroke-opacity:1"
         id="path226" /><path
         d="m 16818.7,8388.7 c -86.8,-73.7 -23.4,-195.8 -119.4,-284.4 -195.8,-179 32.6,-109.1 31.7,-171.6 -0.9,-148.2 30.8,-171.6 122.2,-300.2 43.8,-61.6 315.1,-132.4 464.3,149.2 34.5,65.2 32.7,99.7 33.6,240.5 2.8,298.4 -11.2,330.1 -298.4,458.8 -184.6,83 -311.4,-33.6 -234,-92.3 v 0"
         style="fill:#ffab81;fill-opacity:1;fill-rule:evenodd;stroke:none"
         id="path228" /><path
         d="m 16818.7,8388.7 c -86.8,-73.7 -23.4,-195.8 -119.4,-284.4 -195.8,-179 32.6,-109.1 31.7,-171.6 -0.9,-148.2 30.8,-171.6 122.2,-300.2 43.8,-61.6 315.1,-132.4 464.3,149.2 34.5,65.2 32.7,99.7 33.6,240.5 2.8,298.4 -11.2,330.1 -298.4,458.8 -184.6,83 -311.4,-33.6 -234,-92.3 z"
         style="fill:none;stroke:#ffab81;stroke-width:4.8189;stroke-linecap:butt;stroke-linejoin:miter;stroke-miterlimit:10;stroke-dasharray:none;stroke-opacity:1"
         id="path230" /><path
         d="m 16991.2,7746.2 c -68.1,-5.6 -118.5,-30.7 -197.7,8.4 71.8,-128.7 156.6,-48.5 197.7,-8.4 v 0"
         style="fill:#ffffff;fill-opacity:1;fill-rule:evenodd;stroke:none"
         id="path232" /><path
         d="m 16991.2,7746.2 c -68.1,-5.6 -118.5,-30.7 -197.7,8.4 71.8,-128.7 156.6,-48.5 197.7,-8.4 z"
         style="fill:none;stroke:#ffffff;stroke-width:4.8189;stroke-linecap:butt;stroke-linejoin:miter;stroke-miterlimit:10;stroke-dasharray:none;stroke-opacity:1"
         id="path234" /><path
         d="m 17281.2,8078.2 c 69.9,-56 -39.2,-154.8 61.5,-228.5 202.4,99.8 109.1,277.9 241.5,572.6 l -70.9,-40.1 c -59.6,-9.4 -108.1,370.2 -267.6,447.6 v -177.2 c -82,-5.6 -150.1,332.9 -311.4,373.9 5.6,-74.6 11.2,-150.1 16.8,-225.7 -74.6,-39.1 -210.8,131.5 -364.6,77.4 l 100.7,-163.1 c -16.8,-112.9 -166,14.9 -275.1,-143.6 173.4,-4.7 286.3,-189.3 450.4,-209.8 l 351.5,-91.4 c 14,-103.5 -80.2,-185.6 -58.7,-277 41.9,28.9 83.9,56.9 125.9,84.9 v 0"
         style="fill:#131943;fill-opacity:1;fill-rule:evenodd;stroke:none"
         id="path236" /><path
         d="m 17281.2,8078.2 c 69.9,-56 -39.2,-154.8 61.5,-228.5 202.4,99.8 109.1,277.9 241.5,572.6 l -70.9,-40.1 c -59.6,-9.4 -108.1,370.2 -267.6,447.6 v -177.2 c -82,-5.6 -150.1,332.9 -311.4,373.9 5.6,-74.6 11.2,-150.1 16.8,-225.7 -74.6,-39.1 -210.8,131.5 -364.6,77.4 l 100.7,-163.1 c -16.8,-112.9 -166,14.9 -275.1,-143.6 173.4,-4.7 286.3,-189.3 450.4,-209.8 l 351.5,-91.4 c 14,-103.5 -80.2,-185.6 -58.7,-277 41.9,28.9 83.9,56.9 125.9,84.9 z"
         style="fill:none;stroke:#131943;stroke-width:4.8189;stroke-linecap:butt;stroke-linejoin:miter;stroke-miterlimit:10;stroke-dasharray:none;stroke-opacity:1"
         id="path238" /><path
         d="m 6273.4,3640.6 h 3022.12 c 441.06,0 800.98,-360 800.98,-801 v 0 c 0,-440.1 -359.92,-801 -800.98,-801 H 6273.4 c -440.13,0 -800.99,360.9 -800.99,801 v 0 c 0,441 360.86,801 800.99,801 v 0"
         style="fill:#9999ff;fill-opacity:1;fill-rule:evenodd;stroke:none"
         id="path240" /><path
         d="m 6273.4,3640.6 h 3022.12 c 441.06,0 800.98,-360 800.98,-801 v 0 c 0,-440.1 -359.92,-801 -800.98,-801 H 6273.4 c -440.13,0 -800.99,360.9 -800.99,801 v 0 c 0,441 360.86,801 800.99,801 z"
         style="fill:none;stroke:#9999ff;stroke-width:4.8189;stroke-linecap:butt;stroke-linejoin:miter;stroke-miterlimit:10;stroke-dasharray:none;stroke-opacity:1"
         id="path242" /><path
         d="M 9023.24,3467.1 H 14619.9 V 2213 H 9023.24 c -248.03,0 -451.31,179.9 -451.31,400 v 454.1 c 0,220.1 203.28,400 451.31,400 v 0"
         style="fill:#ffffff;fill-opacity:1;fill-rule:evenodd;stroke:none"
         id="path244" /><path
         d="m 9121.15,3640.6 h 5687.15 c 67.1,0 122.1,-54.1 122.1,-121.2 v 0 c 0,-67.2 -55,-121.3 -122.1,-121.3 h -1 -262 -797.3 -3334.5 -1128.24 c -345.94,0 -628.48,-250.8 -628.48,-558.5 v 0 c 0,-306.8 282.54,-557.6 628.48,-557.6 h 1128.24 3334.5 784.3 c 3.7,0.9 8.3,0.9 13,0.9 h 263 c 67.1,0 122.1,-55 122.1,-122.1 v 0 c 0,-66.3 -55,-121.3 -122.1,-121.3 h -1 v -0.9 H 9121.15 c -440.12,0 -800.99,360.9 -800.99,801 v 0 c 0,441 360.87,801 800.99,801 v 0"
         style="fill:#6666cc;fill-opacity:1;fill-rule:evenodd;stroke:none"
         id="path246" /><path
         d="m 9121.15,3640.6 h 5687.15 c 67.1,0 122.1,-54.1 122.1,-121.2 v 0 c 0,-67.2 -55,-121.3 -122.1,-121.3 h -1 -262 -797.3 -3334.5 -1128.24 c -345.94,0 -628.48,-250.8 -628.48,-558.5 v 0 c 0,-306.8 282.54,-557.6 628.48,-557.6 h 1128.24 3334.5 784.3 c 3.7,0.9 8.3,0.9 13,0.9 h 263 c 67.1,0 122.1,-55 122.1,-122.1 v 0 c 0,-66.3 -55,-121.3 -122.1,-121.3 h -1 v -0.9 H 9121.15 c -440.12,0 -800.99,360.9 -800.99,801 v 0 c 0,441 360.87,801 800.99,801 z"
         style="fill:none;stroke:#6666cc;stroke-width:4.8189;stroke-linecap:butt;stroke-linejoin:miter;stroke-miterlimit:10;stroke-dasharray:none;stroke-opacity:1"
         id="path248" /><path
         d="m 8819.03,2839.6 h 5169.57 c 14,0 26.1,-11.2 26.1,-25.2 v 0 c 0,-14 -12.1,-26.1 -26.1,-26.1 H 8819.03 c -13.99,0 -26.11,12.1 -26.11,26.1 v 0 c 0,14 12.12,25.2 26.11,25.2 v 0"
         style="fill:#9999ff;fill-opacity:1;fill-rule:evenodd;stroke:none"
         id="path250" /><path
         d="m 8819.03,2839.6 h 5169.57 c 14,0 26.1,-11.2 26.1,-25.2 v 0 c 0,-14 -12.1,-26.1 -26.1,-26.1 H 8819.03 c -13.99,0 -26.11,12.1 -26.11,26.1 v 0 c 0,14 12.12,25.2 26.11,25.2 z"
         style="fill:none;stroke:#9999ff;stroke-width:4.8189;stroke-linecap:butt;stroke-linejoin:miter;stroke-miterlimit:10;stroke-dasharray:none;stroke-opacity:1"
         id="path252" /><path
         d="m 10660.7,2558.9 h 3548 c 14,0 25.2,-11.2 25.2,-25.2 v 0 c 0,-14.9 -11.2,-26.1 -25.2,-26.1 h -3548 c -15,0 -26.2,11.2 -26.2,26.1 v 0 c 0,14 11.2,25.2 26.2,25.2 v 0"
         style="fill:#9999ff;fill-opacity:1;fill-rule:evenodd;stroke:none"
         id="path254" /><path
         d="m 10660.7,2558.9 h 3548 c 14,0 25.2,-11.2 25.2,-25.2 v 0 c 0,-14.9 -11.2,-26.1 -25.2,-26.1 h -3548 c -15,0 -26.2,11.2 -26.2,26.1 v 0 c 0,14 11.2,25.2 26.2,25.2 z"
         style="fill:none;stroke:#9999ff;stroke-width:4.8189;stroke-linecap:butt;stroke-linejoin:miter;stroke-miterlimit:10;stroke-dasharray:none;stroke-opacity:1"
         id="path256" /><path
         d="m 10628.9,3087.6 h 2052.4 c 14,0 26.1,-12.1 26.1,-26.1 v 0 c 0,-14 -12.1,-26.1 -26.1,-26.1 h -2052.4 c -14.9,0 -26.1,12.1 -26.1,26.1 v 0 c 0,14 11.2,26.1 26.1,26.1 v 0"
         style="fill:#9999ff;fill-opacity:1;fill-rule:evenodd;stroke:none"
         id="path258" /><path
         d="m 10628.9,3087.6 h 2052.4 c 14,0 26.1,-12.1 26.1,-26.1 v 0 c 0,-14 -12.1,-26.1 -26.1,-26.1 h -2052.4 c -14.9,0 -26.1,12.1 -26.1,26.1 v 0 c 0,14 11.2,26.1 26.1,26.1 z"
         style="fill:none;stroke:#9999ff;stroke-width:4.8189;stroke-linecap:butt;stroke-linejoin:miter;stroke-miterlimit:10;stroke-dasharray:none;stroke-opacity:1"
         id="path260" /><path
         d="m 13937.3,5221.1 h -3022.1 c -440.1,0 -801,-360.9 -801,-801 v 0 c 0,-441 360.9,-801 801,-801 h 3022.1 c 441.1,0 801,360 801,801 v 0 c 0,440.1 -359.9,801 -801,801 v 0"
         style="fill:#18898d;fill-opacity:1;fill-rule:evenodd;stroke:none"
         id="path262" /><path
         d="M 11188.4,5046.7 H 5591.76 V 3792.6 h 5596.64 c 248.1,0 451.3,179.9 451.3,400 v 454.1 c 0,220.1 -203.2,400 -451.3,400 v 0"
         style="fill:#ffffff;fill-opacity:1;fill-rule:evenodd;stroke:none"
         id="path264" /><path
         d="M 11089.6,5221.1 H 5402.47 c -67.13,0 -121.22,-55 -121.22,-122.1 v 0 c 0,-66.2 54.09,-121.3 121.22,-121.3 h 0.94 262.95 797.26 3334.5 1127.38 c 345.9,0 629.4,-250.8 629.4,-557.6 v 0 c 0,-306.8 -283.5,-558.5 -629.4,-558.5 h -1127.38 -3334.5 -784.2 c -4.67,0.9 -9.33,0.9 -13.06,0.9 h -263.89 c -67.13,0 -121.22,-55 -121.22,-121.2 v 0 c 0,-67.2 54.09,-122.2 121.22,-122.2 h 0.94 v 0 h 5686.19 c 441,0 801,360 801,801 v 0 c 0,440.1 -360,801 -801,801 v 0"
         style="fill:#0c6868;fill-opacity:1;fill-rule:evenodd;stroke:none"
         id="path266" /><path
         d="M 11392.6,4420.1 H 6222.11 c -13.98,0 -25.17,-12.1 -25.17,-26.1 v 0 c 0,-14 11.19,-26.1 25.17,-26.1 h 5170.49 c 14,0 25.2,12.1 25.2,26.1 v 0 c 0,14 -11.2,26.1 -25.2,26.1 v 0"
         style="fill:#9999ff;fill-opacity:1;fill-rule:evenodd;stroke:none"
         id="path268" /><path
         d="M 11392.6,4420.1 H 6222.11 c -13.98,0 -25.17,-12.1 -25.17,-26.1 v 0 c 0,-14 11.19,-26.1 25.17,-26.1 h 5170.49 c 14,0 25.2,12.1 25.2,26.1 v 0 c 0,14 -11.2,26.1 -25.2,26.1 z"
         style="fill:none;stroke:#9999ff;stroke-width:4.8189;stroke-linecap:butt;stroke-linejoin:miter;stroke-miterlimit:10;stroke-dasharray:none;stroke-opacity:1"
         id="path270" /><path
         d="M 9551.02,4138.5 H 6002.98 c -13.98,0 -26.11,-11.2 -26.11,-25.2 v 0 c 0,-13.9 12.13,-26.1 26.11,-26.1 h 3548.04 c 13.98,0 25.17,12.2 25.17,26.1 v 0 c 0,14 -11.19,25.2 -25.17,25.2 v 0"
         style="fill:#9999ff;fill-opacity:1;fill-rule:evenodd;stroke:none"
         id="path272" /><path
         d="M 9551.02,4138.5 H 6002.98 c -13.98,0 -26.11,-11.2 -26.11,-25.2 v 0 c 0,-13.9 12.13,-26.1 26.11,-26.1 h 3548.04 c 13.98,0 25.17,12.2 25.17,26.1 v 0 c 0,14 -11.19,25.2 -25.17,25.2 z"
         style="fill:none;stroke:#9999ff;stroke-width:4.8189;stroke-linecap:butt;stroke-linejoin:miter;stroke-miterlimit:10;stroke-dasharray:none;stroke-opacity:1"
         id="path274" /><path
         d="M 9582.72,4667.2 H 7529.43 c -13.99,0 -25.18,-12.1 -25.18,-26.1 v 0 c 0,-14 11.19,-25.2 25.18,-25.2 h 2053.29 c 13.99,0 25.18,11.2 25.18,25.2 v 0 c 0,14 -11.19,26.1 -25.18,26.1 v 0"
         style="fill:#9999ff;fill-opacity:1;fill-rule:evenodd;stroke:none"
         id="path276" /><path
         d="M 9582.72,4667.2 H 7529.43 c -13.99,0 -25.18,-12.1 -25.18,-26.1 v 0 c 0,-14 11.19,-25.2 25.18,-25.2 h 2053.29 c 13.99,0 25.18,11.2 25.18,25.2 v 0 c 0,14 -11.19,26.1 -25.18,26.1 z"
         style="fill:none;stroke:#9999ff;stroke-width:4.8189;stroke-linecap:butt;stroke-linejoin:miter;stroke-miterlimit:10;stroke-dasharray:none;stroke-opacity:1"
         id="path278" /><path
         d="m 6358.25,6811 h 3022.13 c 441.05,0 801.02,-360 801.02,-801 v 0 c 0,-440.1 -359.97,-801 -801.02,-801 H 6358.25 c -440.12,0 -800.99,360.9 -800.99,801 v 0 c 0,441 360.87,801 800.99,801 v 0"
         style="fill:#f7cd23;fill-opacity:1;fill-rule:evenodd;stroke:none"
         id="path280" /><path
         d="m 9108.1,6636.6 h 5596.7 V 5383.4 H 9108.1 c -248.04,0 -451.32,179.9 -451.32,400 v 454.1 c 0,220.1 203.28,399.1 451.32,399.1 v 0"
         style="fill:#ffffff;fill-opacity:1;fill-rule:evenodd;stroke:none"
         id="path282" /><path
         d="m 9206,6811 h 5687.1 c 67.2,0 122.2,-54.1 122.2,-121.3 v 0 c 0,-67.1 -55,-121.2 -122.2,-121.2 h -0.9 -262 -797.3 -3334.5 -1128.28 c -345.95,0 -628.48,-251.7 -628.48,-558.5 v 0 c 0,-306.8 282.53,-557.6 628.48,-557.6 h 1128.28 3334.5 784.2 c 3.7,0 8.4,0.9 13.1,0.9 h 262.9 c 67.2,0 122.2,-55 122.2,-122.2 v 0 c 0,-66.2 -55,-121.2 -122.2,-121.2 h -0.9 V 5209 H 9206 c -440.12,0 -800.98,360.9 -800.98,801 v 0 c 0,441 360.86,801 800.98,801 v 0"
         style="fill:#f5a31c;fill-opacity:1;fill-rule:evenodd;stroke:none"
         id="path284" /><path
         d="m 8903.89,6010 h 5169.61 c 14,0 26.1,-11.2 26.1,-25.2 v 0 c 0,-14 -12.1,-26.1 -26.1,-26.1 H 8903.89 c -13.99,0 -26.11,12.1 -26.11,26.1 v 0 c 0,14 12.12,25.2 26.11,25.2 v 0"
         style="fill:#9999ff;fill-opacity:1;fill-rule:evenodd;stroke:none"
         id="path286" /><path
         d="m 8903.89,6010 h 5169.61 c 14,0 26.1,-11.2 26.1,-25.2 v 0 c 0,-14 -12.1,-26.1 -26.1,-26.1 H 8903.89 c -13.99,0 -26.11,12.1 -26.11,26.1 v 0 c 0,14 12.12,25.2 26.11,25.2 z"
         style="fill:none;stroke:#9999ff;stroke-width:4.8189;stroke-linecap:butt;stroke-linejoin:miter;stroke-miterlimit:10;stroke-dasharray:none;stroke-opacity:1"
         id="path288" /><path
         d="m 10745.5,5729.3 h 3548 c 14,0 25.2,-11.2 25.2,-25.2 v -0.9 c 0,-14 -11.2,-25.2 -25.2,-25.2 h -3548 c -14.9,0 -26.1,11.2 -26.1,25.2 v 0.9 c 0,14 11.2,25.2 26.1,25.2 v 0"
         style="fill:#9999ff;fill-opacity:1;fill-rule:evenodd;stroke:none"
         id="path290" /><path
         d="m 10745.5,5729.3 h 3548 c 14,0 25.2,-11.2 25.2,-25.2 v -0.9 c 0,-14 -11.2,-25.2 -25.2,-25.2 h -3548 c -14.9,0 -26.1,11.2 -26.1,25.2 v 0.9 c 0,14 11.2,25.2 26.1,25.2 z"
         style="fill:none;stroke:#9999ff;stroke-width:4.8189;stroke-linecap:butt;stroke-linejoin:miter;stroke-miterlimit:10;stroke-dasharray:none;stroke-opacity:1"
         id="path292" /><path
         d="m 10713.8,6257.1 h 2052.4 c 13.9,0 26.1,-11.2 26.1,-25.2 v 0 c 0,-14 -12.2,-26.1 -26.1,-26.1 h -2052.4 c -14.9,0 -26.1,12.1 -26.1,26.1 v 0 c 0,14 11.2,25.2 26.1,25.2 v 0"
         style="fill:#9999ff;fill-opacity:1;fill-rule:evenodd;stroke:none"
         id="path294" /><path
         d="m 10713.8,6257.1 h 2052.4 c 13.9,0 26.1,-11.2 26.1,-25.2 v 0 c 0,-14 -12.2,-26.1 -26.1,-26.1 h -2052.4 c -14.9,0 -26.1,12.1 -26.1,26.1 v 0 c 0,14 11.2,25.2 26.1,25.2 z"
         style="fill:none;stroke:#9999ff;stroke-width:4.8189;stroke-linecap:butt;stroke-linejoin:miter;stroke-miterlimit:10;stroke-dasharray:none;stroke-opacity:1"
         id="path296" /></g></g></svg>
